<svg id="Layer_1" data-name="Layer 1" xmlns="http://www.w3.org/2000/svg" viewBox="0 0 895.03 895.02"><defs><style>.cls-1{fill:#fff;}.cls-2{fill:#b8d432;}</style></defs><title>pe_logo_primary_dark_bg</title><g id="pe_logo_primary" data-name="pe logo primary"><g id="Group_10" data-name="Group 10"><g id="Group_6" data-name="Group 6"><path id="Path_5" data-name="Path 5" class="cls-1" d="M401.5,895H349.2C156.6,895,0,738.39,0,545.79H104.5c0,117,82.5,215,192.4,239V608.89H401.4V895Z"/></g><g id="Group_7" data-name="Group 7"><path id="Path_6" data-name="Path 6" class="cls-1" d="M286.1,401.5H0V349.2C0,156.7,156.7,0,349.2,0V104.5c-117,0-215,82.5-239,192.4H286.1Z"/></g><g id="Group_8" data-name="Group 8"><path id="Path_7" data-name="Path 7" class="cls-2" d="M895,349.2H790.43c0-117-82.5-215-192.4-239V286.1H493.53V0h52.3C738.33,0,895,156.6,895,349.2Z"/></g><g id="Group_9" data-name="Group 9"><path id="Path_8" data-name="Path 8" class="cls-1" d="M545.8,895V790.42c117,0,215-82.5,239-192.4H608.9V493.52H895v52.3C895,738.32,738.4,895,545.8,895Z"/></g></g></g></svg>