<?xml version="1.0" encoding="UTF-8" standalone="no"?>
<svg width="57px" height="71px" viewBox="0 0 57 71" version="1.1" xmlns="http://www.w3.org/2000/svg" xmlns:xlink="http://www.w3.org/1999/xlink">
    <!-- Generator: Sketch 48.1 (47250) - http://www.bohemiancoding.com/sketch -->
    <title>clue</title>
    <desc>Created with Sketch.</desc>
    <defs></defs>
    <g id="0000" stroke="none" stroke-width="1" fill="none" fill-rule="evenodd" transform="translate(-848.000000, -1792.000000)">
        <g id="clue" transform="translate(848.000000, 1792.000000)" fill-rule="nonzero">
            <path d="M34.8253735,56 L23.1744816,56 C22.525857,56 22,56.4847513 22,57.0826736 L22,62.7699502 C22,63.4492434 22.5974593,64 23.3343548,64 L34.6656452,64 C35.4025407,64 36,63.4492434 36,62.7699502 L36,57.0826736 C35.9998551,56.4847513 35.474143,56 34.8253735,56 Z" id="Shape" fill="#ECF4F7"></path>
            <path d="M30.0632011,70 L26.9369377,70 C25.8671965,70 25,69.0426281 25,67.86165 L25,64 L32,64 L32,67.86165 C32,69.0426281 31.1329422,70 30.0632011,70 Z" id="Shape" fill="#AAB1BA"></path>
            <path d="M33.0270572,52.2154173 C33.0270572,49.8947218 34.3817549,47.7630227 36.5224682,46.8202795 C44.128574,43.4705265 49.3530497,35.7756773 48.9813658,26.9163535 C48.521421,15.947014 39.3815539,7.15525885 28.2999488,7.00207533 C16.5645075,6.83979872 7,16.2150502 7,27.8031392 C7,36.3677071 12.224617,43.7228946 19.6886582,46.9128891 C21.8851523,47.8515753 23.3090465,49.9919479 23.3090465,52.361746 L23.3090465,55 L33.0267748,55 L33.0267748,52.2154173 L33.0270572,52.2154173 Z" id="Shape" fill="#FFFFFF"></path>
            <path d="M44.3641597,25.639623 C43.5163726,24.7867923 42.141979,24.7867923 41.2941919,25.639623 L34.2056598,32.7703262 C34.2056598,32.7703262 34.2056598,32.770468 34.2056598,32.770468 C33.9902235,29.7887516 31.5189094,27.4366238 28.4999809,27.4366238 C25.4810524,27.4366238 23.0097382,29.7887516 22.7943019,32.7703262 C22.7943019,32.7703262 22.7943019,32.7701843 22.7943019,32.7701843 L15.7459526,25.6799031 C14.8856172,24.8144494 13.4508789,24.7876433 12.6067576,25.6692658 C11.7881559,26.524224 11.7978844,27.8848102 12.635802,28.7277128 L20.3470974,36.4848841 C20.9301008,37.0713559 21.2576261,37.8668869 21.2576261,38.6963155 L21.2576261,48.3934533 C22.8398424,49.5041331 23.8166375,51.3344642 23.8166375,53.3252063 L23.8166375,56 L33.518886,56 L33.518886,53.1768509 C33.518886,51.3309184 34.3515869,49.6034149 35.7423356,48.4829488 L35.7423356,38.6963155 C35.7423356,37.8668869 36.0698609,37.0713559 36.6528643,36.4848841 L44.3641597,28.7277128 C45.2119468,27.8750239 45.2119468,26.492312 44.3641597,25.639623 Z" id="Shape" fill="#B8D432"></path>
            <path d="M26.2476696,2.248286 C26.2476696,1.856224 26.5661896,1.538286 26.9589692,1.538286 L27.7887714,1.538286 L27.7887714,0.71 C27.7887714,0.317938 28.1072914,0 28.5000711,0 C28.8928508,0 29.2113708,0.317938 29.2113708,0.71 L29.2113708,1.538286 L30.041173,1.538286 C30.4339527,1.538286 30.7524727,1.856224 30.7524727,2.248286 C30.7524727,2.640348 30.4339527,2.958286 30.041173,2.958286 L29.2113708,2.958286 L29.2113708,3.786572 C29.2113708,4.178634 28.8928508,4.496572 28.5000711,4.496572 C28.1072914,4.496572 27.7887714,4.178634 27.7887714,3.786572 L27.7887714,2.958286 L26.9589692,2.958286 C26.5661896,2.958286 26.2476696,2.640348 26.2476696,2.248286 Z M3.79350346,22.858592 L2.96370125,22.858592 L2.96370125,22.030306 C2.96370125,21.638244 2.64518126,21.320306 2.25240157,21.320306 C1.85962189,21.320306 1.54110189,21.638244 1.54110189,22.030306 L1.54110189,22.858592 L0.711299682,22.858592 C0.318519998,22.858592 0,23.17653 0,23.568592 C0,23.960654 0.318519998,24.278592 0.711299682,24.278592 L1.54110189,24.278592 L1.54110189,25.106878 C1.54110189,25.49894 1.85962189,25.816878 2.25240157,25.816878 C2.64518126,25.816878 2.96370125,25.49894 2.96370125,25.106878 L2.96370125,24.278592 L3.79350346,24.278592 C4.18628315,24.278592 4.50480314,23.960654 4.50480314,23.568592 C4.50480314,23.17653 4.18628315,22.858592 3.79350346,22.858592 Z M56.2887003,22.858592 L55.4588981,22.858592 L55.4588981,22.030306 C55.4588981,21.638244 55.1403781,21.320306 54.7475984,21.320306 C54.3548187,21.320306 54.0362987,21.638244 54.0362987,22.030306 L54.0362987,22.858592 L53.2064965,22.858592 C52.8137169,22.858592 52.4951969,23.17653 52.4951969,23.568592 C52.4951969,23.960654 52.8137169,24.278592 53.2064965,24.278592 L54.0362987,24.278592 L54.0362987,25.106878 C54.0362987,25.49894 54.3548187,25.816878 54.7475984,25.816878 C55.1403781,25.816878 55.4588981,25.49894 55.4588981,25.106878 L55.4588981,24.278592 L56.2887003,24.278592 C56.68148,24.278592 57,23.960654 57,23.568592 C57,23.17653 56.6816223,22.858592 56.2887003,22.858592 Z M50.3470718,27.689006 C50.5338591,32.175212 49.3677544,36.53518 46.9750845,40.297896 C44.6497036,43.954822 41.3297835,46.815554 37.3743882,48.570816 C35.4918625,49.40606 34.2753978,51.30105 34.2753978,53.39839 L34.2753978,55.5149 L34.3746952,55.5149 C35.4025232,55.5149 36.2387271,56.349576 36.2387271,57.375526 L36.2387271,59.765954 L37.6415524,59.765954 C38.0343321,59.765954 38.3528521,60.083892 38.3528521,60.475954 C38.3528521,60.868016 38.0343321,61.185954 37.6415524,61.185954 L36.2387271,61.185954 L36.2387271,63.419756 C36.2387271,64.532042 35.3321046,65.437008 34.2177825,65.437008 L32.9575017,65.437008 L32.9575017,68.307396 C32.9575017,69.792148 31.7474387,71 30.2599688,71 L27.0541411,71 C25.5666712,71 24.3567505,69.792148 24.3567505,68.307396 L24.3567505,65.437008 L23.0964697,65.437008 C21.9821476,65.437008 21.0755251,64.532042 21.0755251,63.419756 L21.0755251,61.185954 L19.3584476,61.185954 C18.9656679,61.185954 18.6471479,60.868016 18.6471479,60.475954 C18.6471479,60.083892 18.9656679,59.765954 19.3584476,59.765954 L21.0755251,59.765954 L21.0755251,57.375526 C21.0755251,56.349576 21.911729,55.5149 22.939557,55.5149 L23.0633231,55.5149 L23.0633231,53.546922 C23.0633231,51.424732 21.8003394,49.50972 19.8456879,48.668086 C11.8198091,45.211806 6.63372309,37.342024 6.63372309,28.61868 C6.63372309,22.731076 8.94686966,17.211536 13.1470943,13.077206 C17.3464653,8.943586 22.907833,6.711772 28.8121894,6.794558 C34.3947539,6.872232 39.6918026,9.070818 43.7275747,12.98519 C47.7644849,16.900698 50.1153304,22.122606 50.3470718,27.689006 Z M31.5349024,65.437008 L25.7793498,65.437008 L25.7793498,68.307396 C25.7793498,69.009018 26.3512348,69.58 27.0541411,69.58 L30.2599688,69.58 C30.9628751,69.58 31.5349024,69.009018 31.5349024,68.307396 L31.5349024,65.437008 Z M34.8161278,61.185954 L22.4981244,61.185954 L22.4981244,63.419756 C22.4981244,63.749054 22.7665689,64.017008 23.0964697,64.017008 L25.0680502,64.017008 L32.246202,64.017008 L34.2177825,64.017008 C34.5476833,64.017008 34.8161278,63.749054 34.8161278,63.419756 L34.8161278,61.185954 Z M34.3746952,56.9349 L33.5640981,56.9349 L23.7746228,56.9349 L22.939557,56.9349 C22.6961502,56.9349 22.4981244,57.132564 22.4981244,57.375526 L22.4981244,59.765954 L34.8161278,59.765954 L34.8161278,57.375526 C34.8161278,57.132564 34.618102,56.9349 34.3746952,56.9349 Z M48.9257528,27.747936 C48.4762114,16.945428 39.6324802,8.36522 28.7924153,8.214274 C23.2720185,8.137026 18.0721333,10.223432 14.1460436,14.088104 C10.2191003,17.953628 8.05632246,23.11405 8.05632246,28.618538 C8.05632246,36.774592 12.9051101,44.132606 20.4091795,47.3641 C22.8857827,48.430378 24.4859225,50.8573 24.4859225,53.54678 L24.4859225,55.514758 L32.8527984,55.514758 L32.8527984,53.398248 C32.8527984,50.740434 34.4007288,48.336232 36.7963861,47.27322 C44.515837,43.847896 49.2767081,36.183588 48.9257528,27.747936 Z M45.0099058,25.326268 C46.1412991,26.455594 46.1412991,28.293074 45.0099058,29.422258 L37.2292831,37.188522 C36.7710638,37.645762 36.518837,38.253806 36.518837,38.900474 L36.518837,46.097176 C36.518837,46.489238 36.200317,46.807176 35.8075373,46.807176 C35.4147576,46.807176 35.0962376,46.489238 35.0962376,46.097176 L35.0962376,38.900474 C35.0962376,37.874524 35.4965571,36.909918 36.2233631,36.18444 L44.0039858,28.418176 C44.5807076,27.842508 44.5807076,26.906018 44.0039858,26.33035 C43.427264,25.754682 42.4890597,25.754824 41.9123379,26.33035 L34.9835677,33.24646 C34.9848481,33.295734 34.9855594,33.34373 34.9855594,33.391158 C34.9855594,33.50277 34.9827142,33.61353 34.977166,33.723864 C34.8031821,37.139532 31.9645274,39.864938 28.5002134,39.864938 C25.0358994,39.864938 22.1972446,37.139532 22.0232607,33.723864 C22.0177126,33.613672 22.0148674,33.50277 22.0148674,33.391158 C22.0148674,33.34373 22.0154365,33.295734 22.0168591,33.24646 L15.1286329,26.37082 C14.8361465,26.078868 14.4292831,25.915284 14.0086205,25.917556 C13.6090123,25.921248 13.2424084,26.075034 12.9765246,26.350656 C12.4215686,26.925756 12.4306732,27.853158 12.9965833,28.418176 L20.777206,36.18444 C21.504012,36.909918 21.9043314,37.874524 21.9043314,38.900474 L21.9043314,46.007432 C21.9043314,46.399494 21.5858114,46.717432 21.1930318,46.717432 C20.8002521,46.717432 20.4817321,46.399494 20.4817321,46.007432 L20.4817321,38.900474 C20.4817321,38.253806 20.2295052,37.645762 19.771286,37.188522 L11.9906633,29.422116 C10.8803245,28.313664 10.863111,26.493934 11.9521108,25.36546 C12.4853011,24.81308 13.210969,24.504798 13.9955325,24.497556 C14.7948911,24.493296 15.5739065,24.806832 16.1348375,25.366738 L22.2939814,31.514628 C23.1018756,28.857524 25.5781943,26.91752 28.5006402,26.91752 C31.423086,26.91752 33.8994048,28.857382 34.7072989,31.514628 L40.906987,25.326268 C42.0378112,24.197084 43.8785125,24.196942 45.0099058,25.326268 Z M23.4525463,33.017556 C23.4525463,33.018124 23.4525463,33.01855 23.4525463,33.019118 C23.4481363,33.080178 23.4448643,33.135984 23.4424459,33.189234 C23.4397429,33.256258 23.4373245,33.323424 23.4373245,33.391158 C23.4373245,36.177766 25.7085044,38.444796 28.5002134,38.444796 C30.9048331,38.444796 32.9219367,36.762238 33.4353528,34.514946 C33.4554115,34.427048 33.4733362,34.338298 33.4887003,34.248696 C33.5366419,33.969808 33.5631023,33.683536 33.5631023,33.391016 C33.5631023,33.323282 33.5606838,33.256116 33.5579809,33.189092 C33.5555625,33.1357 33.5522905,33.079894 33.5478805,33.018976 C33.5478805,33.01855 33.5478805,33.017982 33.5478805,33.017414 C33.3554028,30.404898 31.1658801,28.337378 28.5003556,28.337378 C25.8348312,28.337378 23.6448818,30.40504 23.4525463,33.017556 Z M16.7111325,59.765954 L16.0944356,59.765954 C15.701656,59.765954 15.383136,60.083892 15.383136,60.475954 C15.383136,60.868016 15.701656,61.185954 16.0944356,61.185954 L16.7111325,61.185954 C17.1039121,61.185954 17.4224321,60.868016 17.4224321,60.475954 C17.4224321,60.083892 17.1039121,59.765954 16.7111325,59.765954 Z M40.9057066,59.765954 L40.2890098,59.765954 C39.8962301,59.765954 39.5777101,60.083892 39.5777101,60.475954 C39.5777101,60.868016 39.8962301,61.185954 40.2890098,61.185954 L40.9057066,61.185954 C41.2984863,61.185954 41.6170063,60.868016 41.6170063,60.475954 C41.6170063,60.083892 41.2984863,59.765954 40.9057066,59.765954 Z" id="Shape" fill="#1C1D21"></path>
        </g>
    </g>
</svg>