<?xml version="1.0" encoding="UTF-8" standalone="no"?>
<svg width="111px" height="120px" viewBox="0 0 111 120" version="1.1" xmlns="http://www.w3.org/2000/svg" xmlns:xlink="http://www.w3.org/1999/xlink">
    <!-- Generator: Sketch 48.1 (47250) - http://www.bohemiancoding.com/sketch -->
    <title>cpcv</title>
    <desc>Created with Sketch.</desc>
    <defs></defs>
    <g id="0000" stroke="none" stroke-width="1" fill="none" fill-rule="evenodd" transform="translate(-283.000000, -3507.000000)">
        <g id="cpcv" transform="translate(283.000000, 3507.000000)" fill-rule="nonzero">
            <path d="M80.9353947,106 C80.9353947,103.890857 81.3119084,101.869714 82,100 L1,100 L1,112 L82,112 C81.3119084,110.130286 80.9353947,108.109143 80.9353947,106 Z" id="Shape" fill="#B8D432"></path>
            <path d="M84.9247653,84.1200968 L13.0752347,84.1200968 C6.40620862,84.1200968 1,78.6938029 1,72 L1,80.8799032 C1,87.5737061 6.40620862,93 13.0752347,93 L84.9247653,93 C91.5937914,93 97,87.5737061 97,80.8799032 L97,72 C97,78.6938029 91.5937914,84.1200968 84.9247653,84.1200968 Z" id="Shape" fill="#D5D9B2"></path>
            <path d="M86,35.8769858 C75.5965552,35.8769858 66.8806476,28.6759267 64.5888742,19 C64.2042569,20.6249475 64,22.3191141 64,24.0615071 C64,36.1776919 73.8498461,46 86,46 C98.1501539,46 108,36.1776919 108,24.0615071 C108,22.3196814 107.795743,20.6249475 107.411126,19 C105.119352,28.6759267 96.4028758,35.8769858 86,35.8769858 Z" id="Shape" fill="#D5D9B2"></path>
            <path d="M93.3146711,26.1886092 C92.8604749,25.3585531 92.178028,24.6363763 91.2840455,24.0427605 C90.4453966,23.4843591 89.1773363,22.9298704 87.4072395,22.3468748 C85.5316631,21.7286647 84.6665002,21.1764119 84.2722487,20.8231489 C83.8094067,20.4067235 83.5840378,19.8136666 83.5840378,19.0104406 C83.5840378,18.1669694 83.8411082,17.5236061 84.3708116,17.0423412 C84.918383,16.5431897 85.7028512,16.3006009 86.7691746,16.3006009 C87.7859284,16.3006009 88.551952,16.6002036 89.1116277,17.2161779 C89.7070397,17.8723973 89.9969643,18.7678518 89.9969643,19.9528477 C89.9969643,20.5313716 90.4805564,21.0003394 91.0771211,21.0003394 L92.7636413,21.0003394 C93.360206,21.0003394 93.843798,20.5313716 93.843798,19.9528477 C93.843798,17.8858124 93.2991085,16.2050187 92.2247156,14.9585371 C91.4777129,14.0899128 90.5220566,13.4728206 89.3715801,13.113968 C88.9231479,12.9742279 88.6142023,12.5751303 88.6142023,12.1184597 L88.6142023,11.0474917 C88.6142023,10.4689677 88.1306102,10 87.5340455,10 L86.0884568,10 C85.4918921,10 85.0083,10.4689677 85.0083,11.0474917 L85.0083,12.0899527 C85.0083,12.5538898 84.691285,12.959136 84.2330541,13.0916096 C83.1419459,13.4074222 82.2145327,13.9373166 81.4640716,14.6757032 C80.3170535,15.8042441 79.7360513,17.2748687 79.7360513,19.046214 C79.7360513,20.7337153 80.2680603,22.1417364 81.3165155,23.2311501 C82.3154012,24.2685804 83.9373655,25.1193181 86.2452352,25.8213722 C88.1882493,26.4742379 89.0557178,27.0482902 89.4424762,27.4155271 C89.9105057,27.8593416 90.1381801,28.4305991 90.1381801,29.1606013 C90.1381801,29.9733296 89.8557485,30.5848322 89.250538,31.0834248 C88.6009453,31.6183499 87.7565324,31.8782664 86.669459,31.8782664 C85.4100446,31.8782664 84.4791731,31.5775458 83.8232401,30.9587767 C83.1753766,30.347833 82.8606671,29.4943006 82.8606671,28.3489909 C82.8606671,27.7704669 82.377075,27.3014992 81.7805103,27.3014992 L80.0801568,27.3014992 C79.4835921,27.3014992 79,27.7704669 79,28.3489909 C79,30.4272054 79.626537,32.1079991 80.8640486,33.3460963 C81.7222948,34.2052183 82.8226253,34.80107 84.1483246,35.1286208 C84.627882,35.2471204 84.9662235,35.6618689 84.9662235,36.1414569 L84.9662235,36.9525083 C84.9662235,37.5310323 85.4498156,38 86.0463803,38 L87.4781356,38 C88.0747003,38 88.5582923,37.5310323 88.5582923,36.9525083 L88.5582923,36.0928273 C88.5582923,35.6233007 88.8822241,35.2135827 89.3485244,35.0872577 C90.4874731,34.7770347 91.4500461,34.251612 92.2235629,33.5160202 C93.4022825,32.3953047 94,30.9202084 94,29.1332122 C94,28.0108199 93.7694436,27.0203422 93.3146711,26.1886092 Z" id="Shape" fill="#B8D432"></path>
            <g id="Group" fill="#3A3A3A">
                <path d="M13.6677245,94.424 L86.0051786,94.424 C93.48975,94.424 99.5788929,88.28 99.5788929,80.728 L99.5788929,48.4851429 C99.5788929,47.696 98.9451735,47.0565714 98.1630765,47.0565714 C97.3809796,47.0565714 96.7472602,47.696 96.7472602,48.4851429 L96.7472602,80.728 C96.7472602,86.7045714 91.9283878,91.5668571 86.0051786,91.5668571 L13.6677245,91.5668571 C7.74451531,91.5668571 2.92564286,86.7045714 2.92564286,80.728 L2.92564286,42.7005714 C2.92564286,36.724 7.74451531,31.8617143 13.6677245,31.8617143 L59.4642857,31.8617143 C60.2463827,31.8617143 60.880102,31.2222857 60.880102,30.4331429 C60.880102,29.644 60.2463827,29.0045714 59.4642857,29.0045714 L13.6677245,29.0045714 C6.18315306,29.0045714 0.0940102041,35.1485714 0.0940102041,42.7005714 L0.0940102041,80.7285714 C0.0940102041,88.28 6.18315306,94.424 13.6677245,94.424 Z" id="Shape"></path>
                <path d="M59.860148,58.4502857 L44.1989541,47.74 C42.9983418,46.9188571 41.4573673,46.8348571 40.1757704,47.5205714 C38.8941735,48.2057143 38.0984847,49.5411429 38.0984847,51.004 L38.0984847,72.4245714 C38.0984847,73.888 38.8941735,75.2228571 40.1757704,75.908 C40.7517245,76.2165714 41.3803469,76.3691429 42.0072704,76.3691429 C42.7740765,76.3691429 43.5386173,76.1405714 44.1989541,75.6885714 L59.860148,64.9782857 C60.9339031,64.2434286 61.5749847,63.0234286 61.5749847,61.7142857 C61.5749847,60.4051429 60.9339031,59.1851429 59.860148,58.4502857 Z M58.2710357,62.6131429 L42.6098418,73.3234286 C42.1273316,73.6542857 41.6742704,73.476 41.5021071,73.384 C41.3299439,73.292 40.9301173,73.0137143 40.9301173,72.4245714 L40.9301173,51.004 C40.9301173,50.4142857 41.3305102,50.1365714 41.5021071,50.0445714 C41.598949,49.9925714 41.7852704,49.9137143 42.0157653,49.9137143 C42.1941582,49.9137143 42.3991684,49.9611429 42.6098418,50.1057143 L58.2710357,60.816 C58.6974796,61.1074286 58.743352,61.5417143 58.743352,61.7148571 C58.743352,61.8874286 58.6974796,62.3217143 58.2710357,62.6131429 Z" id="Shape"></path>
                <path d="M81.8341837,102.285714 C82.6162806,102.285714 83.25,101.646286 83.25,100.857143 C83.25,100.068 82.6162806,99.4285714 81.8341837,99.4285714 L1.50982653,99.4285714 C0.727729592,99.4285714 0.0940102041,100.068 0.0940102041,100.857143 L0.0940102041,112.857143 C0.0940102041,113.646286 0.727729592,114.285714 1.50982653,114.285714 L81.8341837,114.285714 C82.6162806,114.285714 83.25,113.646286 83.25,112.857143 C83.25,112.068 82.6162806,111.428571 81.8341837,111.428571 L2.92564286,111.428571 L2.92564286,102.285714 L81.8341837,102.285714 Z" id="Shape"></path>
                <path d="M86.5613112,47.3337143 C99.4163571,47.3337143 109.875276,36.7811429 109.875276,23.8097143 C109.875276,10.8388571 99.4169235,0.285714286 86.5613112,0.285714286 C73.705699,0.285714286 63.2473469,10.8382857 63.2473469,23.8097143 C63.2473469,36.7805714 73.705699,47.3337143 86.5613112,47.3337143 Z M86.5613112,3.14285714 C97.8549949,3.14285714 107.043643,12.4137143 107.043643,23.8097143 C107.043643,35.2051429 97.8555612,44.4765714 86.5613112,44.4765714 C75.2670612,44.4765714 66.0789796,35.2051429 66.0789796,23.8097143 C66.0789796,12.4137143 75.2670612,3.14285714 86.5613112,3.14285714 Z" id="Shape"></path>
                <path d="M98.1630765,94.0034286 C91.1383622,94.0034286 85.4235612,99.7697143 85.4235612,106.857143 C85.4235612,113.944571 91.1383622,119.710857 98.1630765,119.710857 C105.187224,119.710857 110.902026,113.944571 110.902026,106.857143 C110.902592,99.7697143 105.187791,94.0034286 98.1630765,94.0034286 Z M98.1630765,116.853714 C92.7002908,116.853714 88.2551939,112.369143 88.2551939,106.857143 C88.2551939,101.345143 92.6997245,96.8605714 98.1630765,96.8605714 C103.626429,96.8605714 108.070393,101.345143 108.070393,106.857143 C108.070959,112.369714 103.626429,116.853714 98.1630765,116.853714 Z" id="Shape"></path>
                <path d="M102.076959,102.575429 L96.8486327,108.647429 L94.3590612,105.8 C93.8420051,105.208571 92.9472092,105.152 92.3610612,105.673714 C91.7743469,106.196 91.7188469,107.098286 92.2359031,107.689714 L95.7958316,111.760571 C96.0648367,112.068 96.4510714,112.244 96.8571276,112.244 L96.8622245,112.244 C97.2705459,112.242286 97.6579133,112.063429 97.9257857,111.752571 L104.214842,104.449143 C104.727934,103.853714 104.665071,102.951429 104.074393,102.433714 C103.484281,101.917143 102.589485,101.98 102.076959,102.575429 Z" id="Shape"></path>
            </g>
        </g>
    </g>
</svg>