<?xml version="1.0" encoding="UTF-8" standalone="no"?>
<svg width="129px" height="113px" viewBox="0 0 129 113" version="1.1" xmlns="http://www.w3.org/2000/svg" xmlns:xlink="http://www.w3.org/1999/xlink">
    <!-- Generator: Sketch 48.1 (47250) - http://www.bohemiancoding.com/sketch -->
    <title>crisis</title>
    <desc>Created with Sketch.</desc>
    <defs></defs>
    <g id="0000" stroke="none" stroke-width="1" fill="none" fill-rule="evenodd" transform="translate(-582.000000, -3462.000000)">
        <g id="crisis" transform="translate(646.500000, 3518.500000) scale(-1, 1) translate(-646.500000, -3518.500000) translate(582.000000, 3462.000000)" fill-rule="nonzero">
            <path d="M9,43.4324579 L9,48 L17.5,41.4374072 L26,48 L26,43.4324579 L17.8005533,37.1016844 C17.6249244,36.9661052 17.3750756,36.9661052 17.1994467,37.1016844 L9,43.4324579 Z" id="Shape" fill="#EBE7F2"></path>
            <path d="M24.6868428,16.7316162 L21.7171858,18.8262439 C21.4525404,19.0130401 21.3415109,19.344548 21.4426542,19.6465229 L22.5772837,23.0361725 C22.8039054,23.7124781 22.0061665,24.2743433 21.4137561,23.8564514 L18.4440992,21.7618237 C18.1794537,21.5750275 17.8205092,21.5750275 17.5558638,21.7618237 L14.5862068,23.8564514 C13.9937964,24.2743433 13.1968181,23.7117397 13.4226793,23.0361725 L14.5573088,19.6465229 C14.658452,19.3438097 14.5474226,19.0130401 14.2827771,18.8262439 L11.3131202,16.7316162 C10.7207097,16.3137243 11.0249,15.404108 11.7572379,15.404108 L15.4280532,15.404108 C15.7558182,15.404108 16.0455594,15.199592 16.1467026,14.8968788 L17.2813321,11.5072292 C17.5079538,10.8309236 18.4927696,10.8309236 18.7193913,11.5072292 L19.8540208,14.8968788 C19.955164,15.199592 20.2456657,15.404108 20.5726702,15.404108 L24.2434855,15.404108 C24.975063,15.404108 25.2792532,16.3137243 24.6868428,16.7316162 Z" id="Shape" fill="#B8D432"></path>
            <g id="Group" transform="translate(39.000000, 14.000000)" fill="#EBE7F2">
                <path d="M2.02795082,98.7675333 C1.00918033,98.7675333 0.183688525,97.9469333 0.183688525,96.9342 L0.183688525,2.30266667 C0.183688525,1.28993333 1.00918033,0.469333333 2.02795082,0.469333333 C3.04672131,0.469333333 3.87221311,1.28993333 3.87221311,2.30266667 L3.87221311,96.9342 C3.87221311,97.9469333 3.04672131,98.7675333 2.02795082,98.7675333 Z" id="Shape"></path>
                <path d="M23.4988525,98.7675333 C22.480082,98.7675333 21.6545902,97.9469333 21.6545902,96.9342 L21.6545902,2.30266667 C21.6545902,1.28993333 22.480082,0.469333333 23.4988525,0.469333333 C24.517623,0.469333333 25.3431148,1.28993333 25.3431148,2.30266667 L25.3431148,96.9342 C25.3431148,97.9469333 24.517623,98.7675333 23.4988525,98.7675333 Z" id="Shape"></path>
                <path d="M44.9704918,98.7675333 C43.9517213,98.7675333 43.1262295,97.9469333 43.1262295,96.9342 L43.1262295,2.30266667 C43.1262295,1.28993333 43.9517213,0.469333333 44.9704918,0.469333333 C45.9892623,0.469333333 46.8147541,1.28993333 46.8147541,2.30266667 L46.8147541,96.9342 C46.8147541,97.9469333 45.9892623,98.7675333 44.9704918,98.7675333 Z" id="Shape"></path>
                <path d="M66.4413934,98.7675333 C65.422623,98.7675333 64.5971311,97.9469333 64.5971311,96.9342 L64.5971311,2.30266667 C64.5971311,1.28993333 65.422623,0.469333333 66.4413934,0.469333333 C67.4601639,0.469333333 68.2856557,1.28993333 68.2856557,2.30266667 L68.2856557,96.9342 C68.2856557,97.9469333 67.4601639,98.7675333 66.4413934,98.7675333 Z" id="Shape"></path>
                <path d="M87.9130328,98.7675333 C86.8942623,98.7675333 86.0687705,97.9469333 86.0687705,96.9342 L86.0687705,2.30266667 C86.0687705,1.28993333 86.8942623,0.469333333 87.9130328,0.469333333 C88.9318033,0.469333333 89.7572951,1.28993333 89.7572951,2.30266667 L89.7572951,96.9342 C89.7572951,97.9469333 88.9318033,98.7675333 87.9130328,98.7675333 Z" id="Shape"></path>
            </g>
            <path d="M126.166621,113 C125.525029,113 124.90179,112.664288 124.564844,112.067467 L99.5354318,67.7066957 L82.9729729,80.5434677 C82.5728958,80.8535806 82.0605034,80.9845009 81.5605905,80.9069727 C81.0599436,80.8287131 80.613619,80.5471247 80.3287934,80.1294963 L60.1502246,50.5963632 L40.346774,68.5083082 C39.9481651,68.869619 39.4086115,69.0378406 38.8741966,68.966895 C38.3390476,68.8966808 37.8626254,68.596076 37.570459,68.1440719 L30.2927258,56.888583 C29.7436291,56.0394295 29.9895481,54.9079563 30.8418225,54.3608704 C31.6948309,53.8123216 32.8297286,54.0595343 33.3788253,54.9079563 L39.4834884,64.3495773 L59.2458301,46.4742022 C59.6385664,46.1187426 60.1649064,45.950521 60.6956509,46.0126898 C61.222725,46.0748587 61.6976789,46.3622982 61.9964521,46.7996744 L82.2623772,76.4608023 L98.9635784,63.5165146 C99.3856781,63.1895796 99.9289021,63.0623163 100.45304,63.1669062 C100.976443,63.2722276 101.428641,63.5991627 101.69071,64.0636006 L127.763993,110.275541 C128.260969,111.156145 127.947514,112.270796 127.063674,112.765221 C126.780317,112.923935 126.471266,113 126.166621,113 Z" id="Shape" fill="#B8D432"></path>
            <path d="M25.3122771,49.5903204 C25.6443541,49.8604875 26.0510388,50 26.4613806,50 C26.7290903,50 26.9982628,49.9402089 27.2491492,49.8198886 C27.8847768,49.5135516 28.289267,48.8654459 28.289267,48.1545964 L28.289267,31.1001149 C28.4794433,31.0012013 28.676934,30.9170509 28.8868593,30.8594743 C31.9179763,30.0312572 34.0040636,27.1339736 33.8475339,23.9687374 C33.8094987,23.2091693 34.0494133,22.4643645 34.5226596,21.8716208 C36.4924468,19.4039472 36.4924468,15.822388 34.5226596,13.3547143 C34.0501448,12.7619707 33.8094987,12.0171658 33.8475339,11.2575977 C34.0033321,8.09309971 31.9172449,5.19507797 28.8868593,4.36759901 C28.1590694,4.16829543 27.5307563,3.70842086 27.1189516,3.07138755 C25.4022451,0.41769724 22.027348,-0.690283055 19.092782,0.439842083 C18.3869355,0.710009163 17.6116016,0.710009163 16.9079494,0.439842083 C13.972652,-0.690283055 10.5984863,0.41769724 8.88104841,3.07138755 C8.46924366,3.70842086 7.84093056,4.16829543 7.11314065,4.36759901 C4.08275512,5.19581613 1.99666785,8.09309971 2.15246609,11.2583359 C2.19050135,12.017904 1.95058668,12.7627089 1.47734038,13.3547143 C-0.492446792,15.822388 -0.492446792,19.4039472 1.47734038,21.8716208 C1.94985523,22.4643645 2.19050135,23.2091693 2.15246609,23.9687374 C1.99666785,27.1332354 4.08275512,30.0312572 7.11314065,30.8587361 C7.32233454,30.9163127 7.52055671,31.0004631 7.71073297,31.0993768 L7.71073297,48.1538583 C7.71073297,48.8647077 8.11522324,49.5128135 8.75085082,49.8191505 C9.38574694,50.1262256 10.1398689,50.0361699 10.6877229,49.5895822 L17.9992686,43.6296669 L25.3122771,49.5903204 Z M5.8060446,24.1532778 C5.88869813,22.4879856 5.36278763,20.8551725 4.32632702,19.5560084 C3.42737847,18.4303123 3.42737847,16.7960229 4.32632702,15.6703267 C5.36278763,14.3711626 5.88869813,12.7383495 5.8060446,11.0737955 C5.73436278,9.62995179 6.68670696,8.30716653 8.06914207,7.92996604 C9.6644283,7.4944508 11.0402804,6.48538413 11.9436176,5.08952088 C12.7262661,3.87819799 14.2674252,3.37403374 15.6059735,3.88853225 C17.1500584,4.48201403 18.850673,4.48275219 20.3954894,3.88853225 C21.7340377,3.37329558 23.2744654,3.87819799 24.0571138,5.08952088 C24.9611825,6.4861223 26.3370346,7.4944508 27.9315894,7.92996604 C29.3147559,8.30790469 30.2663687,9.62995179 30.1954183,11.0737955 C30.1127648,12.7390877 30.6386753,14.3719008 31.6751359,15.6710649 C32.5740844,16.796761 32.5740844,18.4310504 31.6751359,19.5567466 C30.6386753,20.8559107 30.1127648,22.4887238 30.1954183,24.1532778 C30.2671001,25.5971215 29.3147559,26.9199068 27.9323208,27.2971073 C26.3370346,27.7326225 24.9611825,28.7416892 24.0578453,30.1382906 C23.2744654,31.3481372 21.7325748,31.8530396 20.3962209,31.3385411 C19.6238127,31.0418002 18.8126378,30.8934297 18.0014629,30.8934297 C17.190288,30.8934297 16.3791131,31.0418002 15.6074364,31.3385411 C14.2674252,31.8530396 12.727729,31.347399 11.9450805,30.1382906 C11.0417433,28.7416892 9.6658912,27.7333607 8.07060497,27.2971073 C6.68670696,26.9191686 5.73436278,25.5971215 5.8060446,24.1532778 Z M11.3687002,44.2917977 L11.3687002,34.4321756 C13.0415198,35.3201838 15.0617768,35.4973425 16.9079494,34.7872312 C17.6116016,34.5170642 18.387667,34.516326 19.0935135,34.7872312 C19.8651902,35.0839721 20.6668563,35.2256991 21.4619394,35.2256991 C22.5686189,35.2256991 23.6592066,34.9488886 24.6327627,34.4321756 L24.6327627,44.2910596 L19.1498349,39.8222303 C18.4798293,39.2759909 17.5216336,39.2759909 16.851628,39.8222303 L11.3687002,44.2917977 Z" id="Shape" fill="#FFFFFF"></path>
            <path d="M127.282749,109.343835 L101.666039,85.3850832 C101.005784,84.7663251 99.9922159,84.7201928 99.2752837,85.2737799 L82.5282182,98.2332835 L62.2082687,68.5372892 C61.9086882,68.0993989 61.433187,67.8116214 60.9039526,67.7493795 C60.3725101,67.6864053 59.8447478,67.8555569 59.4502143,68.2114343 L39.6344728,86.1070896 L19.3866582,54.8396695 C18.9442801,54.157205 18.10148,53.8445308 17.3205096,54.0751921 C16.5373311,54.3043888 16,55.019805 16,55.8311469 L16,111.169355 C16,112.180603 16.8236624,113 17.8401751,113 L126.545206,113 L126.549623,113 C126.549623,113 126.551831,113 126.553303,113 L127.159825,113 C128.176338,113 129,112.180603 129,111.169355 C129,110.20131 128.241848,109.407542 127.282749,109.343835 Z M19.6803502,109.340174 L19.6803502,62.0546084 L37.7170104,89.9075091 C38.0099663,90.3600446 38.4876757,90.6610027 39.0242708,90.7312994 C39.5601298,90.8030607 40.1004052,90.6331769 40.5008273,90.2721736 L60.3577887,72.3391732 L80.5908819,101.907022 C80.876477,102.325142 81.3240076,102.607061 81.8260074,102.685413 C82.3272711,102.763764 82.8403119,102.63269 83.2422061,102.32148 L100.294005,89.1261897 L121.907229,109.340906 L19.6803502,109.340906 L19.6803502,109.340174 Z" id="Shape" fill="#FFFFFF"></path>
        </g>
    </g>
</svg>