<?xml version="1.0" encoding="UTF-8" standalone="no"?>
<svg width="79px" height="79px" viewBox="0 0 79 79" version="1.1" xmlns="http://www.w3.org/2000/svg" xmlns:xlink="http://www.w3.org/1999/xlink">
    <!-- Generator: Sketch 48.1 (47250) - http://www.bohemiancoding.com/sketch -->
    <title>Group 9 Copy 3</title>
    <desc>Created with Sketch.</desc>
    <defs></defs>
    <g id="0000" stroke="none" stroke-width="1" fill="none" fill-rule="evenodd" transform="translate(-1127.000000, -6667.000000)">
        <g id="Group-9-Copy-3" transform="translate(1127.000000, 6667.000000)">
            <rect id="Rectangle-3-Copy-2" fill="#EBC08C" x="5" y="5" width="69" height="69" rx="34.5"></rect>
            <rect id="Rectangle-3-Copy-3" fill="#FFCE91" opacity="0.448460821" x="0" y="0" width="79" height="79" rx="39.5"></rect>
            <g id="clock-copy" transform="translate(17.000000, 17.000000)" fill="#FFFFFF" fill-rule="nonzero">
                <path d="M40.2648926,11.8405151 C39.3328857,12.2914124 38.9428711,13.4129333 39.3937683,14.3444824 C40.6256104,16.8891907 41.25,19.6321106 41.25,22.5 C41.25,32.8385925 32.8385925,41.25 22.5,41.25 C12.1614075,41.25 3.75,32.8385925 3.75,22.5 C3.75,12.1614075 12.1614075,3.75 22.5,3.75 C26.7842102,3.75 30.8088684,5.14892578 34.1400146,7.79525754 C34.9479675,8.44024664 36.1294556,8.30520633 36.7744446,7.49450684 C37.4194336,6.68426508 37.2843933,5.50415039 36.4732361,4.86007687 C32.5296021,1.72576898 27.5669861,0 22.5,0 C10.0941468,0 0,10.0941468 0,22.5 C0,34.9058532 10.0941468,45 22.5,45 C34.9058532,45 45,34.9058532 45,22.5 C45,19.0621948 44.2492676,15.7676696 42.7688599,12.7116394 C42.3188782,11.7778015 41.193695,11.3887024 40.2648926,11.8405151 Z" id="Shape"></path>
                <path d="M22.8571429,7 C21.8319964,7 21,7.84621856 21,8.88888889 L21,22.1111111 C21,23.1537814 21.8319964,24 22.8571429,24 L32.1428571,24 C33.1680036,24 34,23.1537814 34,22.1111111 C34,21.0684408 33.1680036,20.2222222 32.1428571,20.2222222 L24.7142857,20.2222222 L24.7142857,8.88888889 C24.7142857,7.84621856 23.8822893,7 22.8571429,7 Z" id="Shape"></path>
            </g>
        </g>
    </g>
</svg>