<?xml version="1.0" encoding="UTF-8" standalone="no"?>
<svg width="79px" height="79px" viewBox="0 0 79 79" version="1.1" xmlns="http://www.w3.org/2000/svg" xmlns:xlink="http://www.w3.org/1999/xlink">
    <!-- Generator: Sketch 48.1 (47250) - http://www.bohemiancoding.com/sketch -->
    <title>Group 9 Copy</title>
    <desc>Created with Sketch.</desc>
    <defs></defs>
    <g id="0000" stroke="none" stroke-width="1" fill="none" fill-rule="evenodd" transform="translate(-531.000000, -6667.000000)">
        <g id="Group-9-Copy" transform="translate(531.000000, 6667.000000)">
            <rect id="Rectangle-3-Copy-2" fill="#A3BBEC" x="5" y="5" width="69" height="69" rx="34.5"></rect>
            <rect id="Rectangle-3-Copy-3" fill="#3268D4" opacity="0.448460821" x="0" y="0" width="79" height="79" rx="39.5"></rect>
            <g id="team-copy" transform="translate(25.000000, 16.000000)" fill="#FFF6F6" fill-rule="nonzero">
                <g id="man">
                    <path d="M21.6882833,35 L19.3117993,35 C18.5884785,35 18,35.5693125 18,36.2690757 L18,37.861599 C18,39.0406949 19.11214,40 20.479166,40 L20.5209167,40 C21.88786,40 23,39.0406949 23,37.861599 L23,36.2690757 C23,35.5693125 22.4116042,35 21.6882833,35 Z M21.7598796,37.861599 C21.7598796,38.370365 21.1924832,38.8002687 20.5209167,38.8002687 L20.479166,38.8002687 C19.8075168,38.8002687 19.2401204,38.370365 19.2401204,37.861599 C19.2696352,36.3366606 19.174642,36.1997313 19.3117993,36.1997313 L21.6882833,36.1997313 C21.7277192,36.1997313 21.7598796,36.2307643 21.7598796,36.2690757 L21.7598796,37.861599 Z" id="Shape"></path>
                    <path d="M30.9500774,40.0253473 L30.2420566,36.4690167 C30.1741182,36.1277871 29.842572,35.9059836 29.5013682,35.9742631 C29.1601645,36.0422067 28.9387978,36.3738621 29.0066522,36.7150078 L29.710978,40.2530297 C29.7435616,40.4954094 29.7797562,41.0547473 29.4917107,41.3865707 C29.0001019,41.9528792 27.9432354,41.6607806 25.2440897,41.7401461 L25.2440897,35.8032703 C25.2440897,35.4553219 24.9621746,35.1733854 24.6142526,35.1733854 C24.2663306,35.1733854 23.9844156,35.4553219 23.9844156,35.8032703 L23.9844156,41.7401461 L7.03256129,41.7401461 L7.03256129,35.8032703 C7.03256129,35.4553219 6.75064622,35.1733854 6.40272424,35.1733854 C6.05480225,35.1733854 5.77288718,35.4553219 5.77288718,35.8032703 L5.77288718,41.7401461 L2.59179018,41.7401461 C1.57011051,41.7401461 1.14392077,41.291416 1.28340868,40.2530297 L3.11480687,31.0545256 C3.51286389,29.0606457 5.3615616,28.7395724 5.45998414,28.6943886 L11.7403833,27.1457954 C12.7592077,30.9989277 18.2555017,30.9674335 19.2564388,27.1384048 L25.5338147,28.6943046 C25.640971,28.7435196 27.4828665,29.0675325 27.8794959,31.0541896 L28.423927,33.7887302 C28.4918654,34.1299599 28.8237476,34.3513435 29.1646154,34.2834839 C29.5058191,34.2155403 29.7271858,33.8838849 29.6593314,33.5427392 L29.1148163,30.8078626 C28.7102089,28.7808088 27.2348786,27.9502845 26.3915688,27.635426 C25.9479116,27.4726637 23.9001014,27.005793 19.382994,25.8719161 L19.382994,24.9002135 C22.0533352,23.5039685 23.8575244,20.7084551 23.8575244,17.4972175 L23.8575244,17.3808988 C25.9645393,16.9915459 26.9384353,14.8599312 25.7399814,13.3187286 L25.7399814,8.84772116 C25.7399814,8.79338308 25.7325073,7.50010327 25.084447,6.04834441 C24.4791316,4.69232805 23.1846905,2.93368923 20.4553966,2.25610098 C18.3840725,1.74186289 17.2470066,0.992047827 16.657983,0.453706143 C15.9960663,-0.151151393 14.9979005,-0.151319363 14.3362357,0.453706143 C13.7471281,0.992047827 12.6101463,1.74186289 10.5388222,2.25610098 C9.2743613,2.57003564 8.2033024,3.1446587 7.35528979,3.96401306 C7.10503454,4.20572092 7.0982323,4.6044801 7.33992177,4.8546704 C7.58161124,5.10486071 7.98042406,5.11174745 8.23042738,4.8700396 C8.91694977,4.20672874 9.79569842,3.73859823 10.8422357,3.47891765 C13.1700294,2.90093521 14.4892441,2.020524 15.1860119,1.38375229 C15.36329,1.22149392 15.6307608,1.22166189 15.8080389,1.38375229 C16.5047227,2.020524 17.8238534,2.90093521 20.1518151,3.47891765 C24.4065744,4.53519275 24.4792156,8.67404088 24.4802233,8.84788913 L24.4802233,12.3918739 C24.2828744,12.3135162 24.0745243,12.2527953 23.8574404,12.2126506 C23.8037783,11.942472 24.1830242,10.2862944 22.6484892,9.49457103 C22.6484892,9.49448704 22.6484052,9.49448704 22.6484052,9.49448704 C16.1778792,6.15760845 10.5139646,8.30560017 8.3791529,9.38404721 C7.62670757,9.76416179 7.1592845,10.5251468 7.1592845,11.3700325 L7.1592845,12.2127346 C6.93397079,12.254391 6.71797867,12.3181354 6.51399545,12.4007763 C6.5203778,8.95488559 6.39961704,8.44291509 6.84050298,7.12662348 C6.95101838,6.79681571 6.7731524,6.43979692 6.44336972,6.32935708 C6.11367102,6.21891725 5.7565954,6.39671278 5.64616397,6.72652055 C5.25885617,7.88273739 5.25440532,8.80900423 5.25440532,8.84788913 L5.25440532,13.349299 C4.08198465,14.9023434 5.08460125,16.9975928 7.15936848,17.3810667 C7.17053759,17.4340611 6.99401526,20.8695376 9.79183542,23.5401659 C10.3466799,24.0697732 10.9587135,24.5115325 11.6114766,24.8638482 L11.6114766,25.8802305 C4.84694274,27.5485859 5.147417,27.4735036 5.1172688,27.482322 C5.0813261,27.498783 2.44365251,27.9825346 1.87948647,30.8083665 L0.0443092587,40.0253473 C0.0420418453,40.0368532 0.0400263667,40.0483591 0.0384307795,40.0600329 C-0.202754822,41.762402 0.696400552,43 2.59179018,43 L28.4025965,43 C29.3027596,43 29.9891141,42.7351124 30.4427647,42.2126438 C30.9604068,41.6165207 31.0836869,40.6936972 30.9500774,40.0253473 Z M23.8576084,13.5045867 C25.3822339,13.9578519 25.3747599,15.6375451 23.8576084,16.0884588 L23.8576084,13.5045867 Z M7.1592845,16.0886268 C5.63843797,15.6365373 5.63902582,13.9565921 7.1592845,13.5047547 L7.1592845,16.0886268 Z M18.1173575,26.3232496 C18.0305239,27.7015219 16.8796857,28.7813127 15.4974033,28.7813127 C14.1214193,28.7813127 12.9710009,27.706729 12.8784569,26.3349235 C12.8658601,26.1482256 12.8737541,25.8236249 12.8713187,25.417643 C14.5171249,25.9678266 16.372121,26.0053677 18.1234879,25.4314165 C18.1209685,25.8644414 18.1290305,26.1436904 18.1173575,26.3232496 Z M8.4189586,17.3872816 C8.4189586,16.0002749 8.4189586,12.7629181 8.4189586,11.3697806 C8.4189586,11.0030195 8.62134624,10.6728758 8.94709797,10.5082659 C10.1248093,9.91340254 12.4705744,8.9647118 15.4458406,8.9647118 C17.4280638,8.9647118 19.6901866,9.38614683 22.0711386,10.6140026 C22.3960505,10.781636 22.5978503,11.1116957 22.5978503,11.4753493 C22.5978503,13.3202404 22.5978503,15.7337916 22.5978503,17.4971335 C22.5978503,20.1046053 21.1754263,22.6726883 18.4636839,23.928427 C13.6629819,26.1544405 8.4189586,22.5014436 8.4189586,17.3872816 Z" id="Shape"></path>
                </g>
            </g>
        </g>
    </g>
</svg>