<?xml version="1.0" encoding="UTF-8" standalone="no"?>
<svg width="79px" height="79px" viewBox="0 0 79 79" version="1.1" xmlns="http://www.w3.org/2000/svg" xmlns:xlink="http://www.w3.org/1999/xlink">
    <!-- Generator: Sketch 48.1 (47250) - http://www.bohemiancoding.com/sketch -->
    <title>Group 9 Copy 2</title>
    <desc>Created with Sketch.</desc>
    <defs></defs>
    <g id="0000" stroke="none" stroke-width="1" fill="none" fill-rule="evenodd" transform="translate(-829.000000, -6667.000000)">
        <g id="Group-9-Copy-2" transform="translate(829.000000, 6667.000000)">
            <rect id="Rectangle-3-Copy-2" fill="#FFBAF3" x="5" y="5" width="69" height="69" rx="34.5"></rect>
            <rect id="Rectangle-3-Copy-3" fill="#D43273" opacity="0.448460821" x="0" y="0" width="79" height="79" rx="39.5"></rect>
            <g id="megaphone" transform="translate(20.000000, 25.000000)" fill="#FFFFFF" fill-rule="nonzero">
                <path d="M26.5858816,2.42079308 C23.5771658,5.89502193 16.000777,7.14335066 9.78570953,7.14335066 L0,7.14335066 L0,19.4059119 L5.13829014,19.4059119 L7.40836617,31 L14.5115878,29.5645446 L12.5383678,19.4865178 C18.088748,19.8116391 24.0105,21.1545531 26.5858816,24.1283877 L26.5858816,26.5491808 L29,26.5491808 L29,0 L26.5858816,0 L26.5858816,2.42079308 Z M2.41411843,9.5958629 L9.78570953,9.5958629 C10.6526999,9.5958629 11.8733587,9.57002977 13.2929408,9.46849577 L13.2929408,17.080685 C11.8733587,16.979151 10.6526999,16.9533179 9.78570953,16.9533179 L2.41411843,16.9533179 L2.41411843,9.5958629 Z M11.6729064,27.6376057 L9.30521949,28.1160909 L7.59972529,19.4059119 L9.78570953,19.4059119 C9.87728509,19.4059119 9.96918253,19.4062389 10.0613214,19.4068111 L11.6729064,27.6376057 Z M19.8813114,18.0611994 C18.4670403,17.7193192 17.045366,17.480935 15.7069787,17.3152269 L15.7069787,9.23395385 C17.0452855,9.06824577 18.4669599,8.82986158 19.8813114,8.48798137 C22.6536045,7.81779153 24.8961596,6.87381956 26.5858011,5.66963605 L26.5858011,20.8795447 C24.8961596,19.6753612 22.653685,18.7313893 19.8813114,18.0611994 Z" id="Shape"></path>
                <path d="M37.618901,2 L36,3.7601863 C38.3927499,6.36184006 39.7105062,9.82080985 39.7105062,13.5 C39.7105062,17.1791901 38.3927499,20.6381599 36,23.2398137 L37.618901,25 C40.44406,21.9281998 42,17.844083 42,13.5 C42,9.15591697 40.44406,5.07171719 37.618901,2 Z" id="Shape"></path>
                <path d="M33.7392695,6 L32,7.76468937 C35.3885951,11.2028929 35.3885951,16.7971903 32,20.2353106 L33.7392695,22 C38.0869102,17.5888173 38.0869102,10.4111827 33.7392695,6 Z" id="Shape"></path>
                <polygon id="Shape" points="8 12 11 12 11 15 8 15"></polygon>
            </g>
        </g>
    </g>
</svg>