<?xml version="1.0" encoding="UTF-8" standalone="no"?>
<svg width="79px" height="79px" viewBox="0 0 79 79" version="1.1" xmlns="http://www.w3.org/2000/svg" xmlns:xlink="http://www.w3.org/1999/xlink">
    <!-- Generator: Sketch 48.1 (47250) - http://www.bohemiancoding.com/sketch -->
    <title>Group 9</title>
    <desc>Created with Sketch.</desc>
    <defs></defs>
    <g id="0000" stroke="none" stroke-width="1" fill="none" fill-rule="evenodd" transform="translate(-235.000000, -6667.000000)">
        <g id="Group-9" transform="translate(235.000000, 6667.000000)">
            <rect id="Rectangle-3-Copy-2" fill="#32D4CD" x="5" y="5" width="69" height="69" rx="34.5"></rect>
            <rect id="Rectangle-3-Copy-3" fill="#32D4CD" opacity="0.448460821" x="0" y="0" width="79" height="79" rx="39.5"></rect>
            <g id="team-copy" transform="translate(19.000000, 22.000000)" fill="#FFFFFF" fill-rule="nonzero">
                <path d="M39.9196488,32.2874058 L38.334005,26.7868676 C38.2962516,26.6738428 38.2207448,26.5608181 38.1452379,26.4854682 C37.163649,23.5091496 34.74743,21.2109795 31.6894028,20.4198062 L31.2363617,20.3444564 C30.5568001,20.1560818 29.8017317,20.3821313 29.3109372,20.9472551 C27.6497867,22.8310011 25.535595,22.9817008 23.3081431,22.9817008 C21.0806913,22.9817008 18.9664996,22.8310011 17.3053491,20.9472551 C16.8145546,20.3821313 16.0594862,20.1560818 15.3799246,20.3444564 L14.9268835,20.4574812 C12.6239248,21.0602799 10.6607468,22.5296017 9.41488391,24.4886975 L4.65795276,24.4886975 C4.62019934,24.4886975 4.62019934,24.4886975 4.58244591,24.4510226 C4.58244591,24.4133477 4.54469249,24.3756728 4.54469249,24.3003229 L5.52628146,20.7965554 C6.39461016,18.0462863 8.05576072,17.2174381 11.302555,16.3885899 C11.4535687,16.350915 11.566829,16.2755651 11.6423358,16.2002153 C11.9066097,16.4262648 12.2086371,16.6146394 12.5106645,16.7653391 C12.6239248,16.8406889 12.737185,16.8406889 12.8504453,16.8406889 C13.1147192,16.8406889 13.3789932,16.6899892 13.5300069,16.4262648 C13.718774,16.0495156 13.5677603,15.5974166 13.1902261,15.409042 C11.4535687,14.5048439 10.2077058,11.9429494 10.2077058,9.30570506 C10.2077058,6.96986006 12.1331303,5.04843918 14.4738424,5.04843918 C14.9268835,5.04843918 15.3421711,5.12378902 15.7574588,5.23681378 C15.3421711,6.2540366 15.1156506,7.34660926 15.1156506,8.51453175 C15.1156506,14.9569429 19.0042531,20.3821313 23.6101705,20.3821313 C28.1405811,20.3821313 32.1424439,14.8439182 32.1424439,8.51453175 C32.1424439,3.80516685 28.3293482,0 23.6101705,0 C20.6276502,0 17.9849107,1.54467169 16.4747738,3.88051668 C15.8329656,3.65446717 15.153404,3.54144241 14.4738424,3.54144241 C12.4351577,3.54144241 10.6229934,4.63401507 9.60365102,6.2540366 C9.52814417,6.17868676 9.45263733,6.14101184 9.37713049,6.10333692 C8.81082916,5.80193757 8.24452783,5.68891281 7.60271966,5.68891281 C5.48852804,5.65123789 3.78962406,7.34660926 3.78962406,9.45640474 C3.78962406,10.6620022 4.12940485,11.7922497 4.65795276,12.6964478 C2.92129535,13.1485468 1.37340506,13.8266954 0.656090043,16.1248654 L0.0520352934,18.3100108 C-0.0612249721,18.68676 0.0142818715,19.1011841 0.240802403,19.4025834 C0.467322934,19.7416577 0.882610574,19.9300323 1.29789821,19.9300323 L4.2049117,19.9300323 C4.16715827,20.080732 4.09165143,20.2314316 4.05389801,20.3821313 L3.07230904,23.9235737 C2.92129535,24.4133477 3.03455562,24.9407966 3.37433641,25.3552207 C3.67636379,25.7696448 4.12940485,25.9956943 4.65795276,25.9956943 L8.65981547,25.9956943 C8.54655521,26.2594187 8.47104836,26.5231432 8.39554152,26.7868676 L6.8098978,32.3250807 C6.65888411,32.9655544 6.77214438,33.6437029 7.18743202,34.1711518 C7.60271966,34.6986006 8.20677441,35 8.84858258,35 L31.5006357,35 L32.784252,35 L37.880964,35 C38.5227721,35 39.1645803,34.6986006 39.5421145,34.1711518 C39.9574022,33.6437029 40.1084159,32.9655544 39.9196488,32.2874058 Z M17.3808559,5.34983854 C17.4186093,5.31216362 17.4563628,5.2744887 17.4941162,5.19913886 C17.5318696,5.16146394 17.5318696,5.0861141 17.569623,5.04843918 C18.7399791,2.9386437 21.0051844,1.50699677 23.6101705,1.50699677 C26.7437045,1.50699677 29.3864441,3.57911733 30.2925262,6.40473628 C28.9711564,6.66846071 27.5742798,6.14101184 26.7437045,5.01076426 C26.4794306,4.67168999 26.0263895,4.59634015 25.6866087,4.86006459 C25.535595,4.97308934 25.4600882,5.0861141 25.4223348,5.23681378 C25.3845813,5.2744887 25.3845813,5.31216362 25.3468279,5.34983854 C24.2897321,7.49730893 20.7409105,8.401507 16.7012943,7.61033369 C16.8145546,6.81916039 17.0410751,6.065662 17.3808559,5.34983854 Z M19.4950475,9.3810549 C22.5153213,9.3810549 25.0070471,8.43918192 26.2906635,6.66846071 C27.234499,7.49730893 28.4048551,7.94940797 29.650718,7.94940797 C29.9527454,7.94940797 30.2925262,7.91173305 30.5945536,7.83638321 C30.632307,8.06243272 30.632307,8.25080732 30.632307,8.47685684 C30.632307,14.01507 27.3477593,18.8751346 23.6101705,18.8751346 C20.0235954,18.8751346 16.8900614,14.3918192 16.6257875,9.11733046 C17.6073764,9.30570506 18.5889654,9.3810549 19.4950475,9.3810549 Z M1.59992559,18.4230355 L2.12847349,16.5392896 C2.58151456,14.9946179 3.5253501,14.5425188 5.41302119,14.0904198 C5.52628146,14.0527449 5.63954173,14.01507 5.71504857,13.9397201 C5.90381568,14.0904198 6.05482937,14.2034446 6.2813499,14.3164693 C6.39461016,14.3918192 6.50787043,14.3918192 6.62113069,14.3918192 C6.88540465,14.3918192 7.1496786,14.2411195 7.30069229,13.977395 C7.4894594,13.6006459 7.33844571,13.1485468 6.99866491,12.9601722 C6.01707594,12.4327234 5.29976093,10.9634015 5.29976093,9.45640474 C5.29976093,8.17545748 6.31910332,7.15823466 7.60271966,7.15823466 C8.0180073,7.15823466 8.3577881,7.2335845 8.69756889,7.4219591 C8.81082916,7.45963402 8.886336,7.49730893 8.99959627,7.49730893 C8.81082916,8.06243272 8.69756889,8.66523143 8.69756889,9.30570506 C8.69756889,11.4531755 9.41488391,13.5629709 10.5474866,15.0322928 C8.28228125,15.5974166 6.2813499,16.350915 4.95998013,18.4230355 L1.59992559,18.4230355 Z M38.3717585,33.2669537 C38.2962516,33.3423036 38.1452379,33.4930032 37.880964,33.4930032 L32.784252,33.4930032 L31.5006357,33.4930032 L8.84858258,33.4930032 C8.58430863,33.4930032 8.43329494,33.3423036 8.3577881,33.2669537 C8.24452783,33.116254 8.20677441,32.8902045 8.24452783,32.7395048 L9.83017155,27.2389666 C10.58524,24.6393972 12.6616782,22.6049516 15.3044177,21.926803 L15.7574588,21.8137783 C15.870719,21.7761033 16.0594862,21.8514532 16.1727464,21.9644779 C18.2491846,24.3379978 20.8164173,24.5263724 23.3081431,24.5263724 C25.799869,24.5263724 28.3671017,24.3379978 30.4435399,21.9644779 C30.5568001,21.8514532 30.7078138,21.7761033 30.8965809,21.8137783 L31.349622,21.926803 C33.9546081,22.6049516 36.0687997,24.6393972 36.8238682,27.2389666 L37.5034298,29.5748116 C37.5411832,29.6878364 37.5789366,29.7631862 37.6544434,29.8385361 L38.4850187,32.7018299 C38.5227721,32.8902045 38.4850187,33.116254 38.3717585,33.2669537 Z" id="Shape"></path>
            </g>
        </g>
    </g>
</svg>