<?xml version="1.0" encoding="UTF-8" standalone="no"?>
<svg width="627px" height="627px" viewBox="0 0 627 627" version="1.1" xmlns="http://www.w3.org/2000/svg" xmlns:xlink="http://www.w3.org/1999/xlink">
    <!-- Generator: Sketch 48.1 (47250) - http://www.bohemiancoding.com/sketch -->
    <title>instagram</title>
    <desc>Created with Sketch.</desc>
    <defs></defs>
    <g id="0000" stroke="none" stroke-width="1" fill="none" fill-rule="evenodd" transform="translate(-217.000000, -12809.000000)" opacity="0.0520638993">
        <g id="instagram" transform="translate(217.000000, 12809.000000)" fill="#000000" fill-rule="nonzero">
            <path d="M431.0625,0 L195.9375,0 C87.7408125,0 0,87.7408125 0,195.9375 L0,431.0625 C0,539.259187 87.7408125,627 195.9375,627 L431.0625,627 C539.259187,627 627,539.259187 627,431.0625 L627,195.9375 C627,87.7408125 539.259187,0 431.0625,0 Z M568.21875,431.0625 C568.21875,506.694375 506.694375,568.21875 431.0625,568.21875 L195.9375,568.21875 C120.305625,568.21875 58.78125,506.694375 58.78125,431.0625 L58.78125,195.9375 C58.78125,120.305625 120.305625,58.78125 195.9375,58.78125 L431.0625,58.78125 C506.694375,58.78125 568.21875,120.305625 568.21875,195.9375 L568.21875,431.0625 Z" id="Shape"></path>
            <path d="M314,157 C227.29675,157 157,227.29675 157,314 C157,400.70325 227.29675,471 314,471 C400.70325,471 471,400.70325 471,314 C471,227.29675 400.70325,157 314,157 Z M314,412.125 C259.9135,412.125 215.875,368.0865 215.875,314 C215.875,259.87425 259.9135,215.875 314,215.875 C368.0865,215.875 412.125,259.87425 412.125,314 C412.125,368.0865 368.0865,412.125 314,412.125 Z" id="Shape"></path>
            <circle id="Oval" cx="482" cy="145" r="21"></circle>
        </g>
    </g>
</svg>