<?xml version="1.0" encoding="UTF-8" standalone="no"?>
<svg width="123px" height="122px" viewBox="0 0 123 122" version="1.1" xmlns="http://www.w3.org/2000/svg" xmlns:xlink="http://www.w3.org/1999/xlink">
    <!-- Generator: Sketch 48.1 (47250) - http://www.bohemiancoding.com/sketch -->
    <title>marketing</title>
    <desc>Created with Sketch.</desc>
    <defs></defs>
    <g id="0000" stroke="none" stroke-width="1" fill="none" fill-rule="evenodd" transform="translate(-892.000000, -3513.000000)">
        <g id="marketing" transform="translate(892.000000, 3513.000000)" fill-rule="nonzero">
            <path d="M2,59 L2,62.3271418 C2,63.8035062 3.3236572,65 4.95692966,65 L13,65 L13,59 L2,59 Z" id="Shape" fill="#D5D9B2"></path>
            <path d="M13,68 L13,73.4493258 C13,74.8579382 14.1019043,76 15.4609868,76 L38,76 L38,68.000696 L13,68.000696 L13,68 Z" id="Shape" fill="#D5D9B2"></path>
            <path d="M74.6990844,81.4023119 L38,68 L38,75.4455812 L74.6990844,88.8478931 C76.3006645,89.433202 78,88.2566049 78,86.5631288 L78,79.1175476 C78,80.8110237 76.3006645,81.9876208 74.6990844,81.4023119 Z" id="Shape" fill="#D5D9B2"></path>
            <path d="M33.4497688,11.6219179 C32.90167,10.792694 31.7142344,10.792694 31.1661356,11.6219179 L22.622637,24.5467538 L19.2971464,19.515438 C18.7483767,18.6862142 17.561612,18.6862142 17.0135132,19.515438 L9,31.6386908 C9.03220164,32.3953576 9.63329899,33 10.3752785,33 L17.034981,33 L28.2096222,33 L35.6186837,33 C36.3814601,33 37,32.3628797 37,31.5771901 L37,16.9939065 L33.4497688,11.6219179 Z" id="Shape" fill="#B8D432"></path>
            <path d="M17.5,14 C19.4327269,14 21,12.4327269 21,10.5 C21,8.56727307 19.4327269,7 17.5,7 C15.5672731,7 14,8.56727307 14,10.5 C14,12.4327269 15.5666098,14 17.5,14 Z" id="Shape" fill="#B8D432"></path>
            <path d="M72.7588358,98 L44.2411642,98 C43.3714688,98 42.5858506,98.3497437 42,98.9115152 L56.0133301,110.125129 C57.4715666,111.291624 59.5284334,111.291624 60.9866699,110.125129 L75,98.9115152 C74.4141494,98.3504254 73.6292039,98 72.7588358,98 Z" id="Shape" fill="#B8D432"></path>
            <path d="M86,22.9355954 C86,22.281865 86.0355187,21.636436 86.1011948,21 C87.0367442,30.0664453 94.4688661,37.1288091 103.5,37.1288091 C112.531134,37.1288091 119.962586,30.0664453 120.898805,21 C120.964481,21.6357442 121,22.2811733 121,22.9355954 C121,32.9124209 113.165109,41 103.5,41 C99.8536361,41 96.4693065,39.8474975 93.6660093,37.8786967 L93.6660093,37.8793885 L86.3746218,40.5648715 L91.5194731,36.0973678 C88.1237506,32.8017364 86,28.1260074 86,22.9355954 Z" id="Shape" fill="#D5D9B2"></path>
            <path d="M103.5,27 C102.119277,27 101,25.7976596 101,24.3144704 L101,13.6855296 C101,12.2023404 102.119277,11 103.5,11 C104.880723,11 106,12.2023404 106,13.6855296 L106,24.3144704 C106,25.7976596 104.880723,27 103.5,27 Z" id="Shape" fill="#B8D432"></path>
            <circle id="Oval" fill="#B8D432" cx="103.5" cy="31.5" r="2.5"></circle>
            <g id="Group" fill="#3A3A3A">
                <path d="M90.9497143,58.3044778 L90.9497143,57.8903556 C90.9497143,51.6541222 86.3142363,46.4962333 80.3203516,45.6666333 L80.3203516,29.2135778 C80.3203516,27.8485333 79.653989,26.5675333 78.5368516,25.7860556 C77.4217418,25.0059333 75.9916978,24.8209 74.7157418,25.2926333 L37.9563132,38.8610667 L15.5723407,38.8610667 C13.2752143,38.8610667 11.4058846,40.7358 11.4058846,43.0395667 L11.4058846,48.8074556 L5.24777473,48.8074556 C2.7255989,48.8074556 0.673120879,50.8658667 0.673120879,53.3960111 L0.673120879,62.8001778 C0.673120879,65.3296444 2.7255989,67.3887333 5.24777473,67.3887333 L11.4058846,67.3887333 L11.4058846,73.1566222 C11.4058846,75.4603889 13.2752143,77.3351222 15.5723407,77.3351222 L19.4698187,77.3351222 L25.1332253,95.7733889 C25.3515165,96.4837 26.0063901,96.9689889 26.7477692,96.9689889 L33.6195495,96.9689889 C34.1183077,96.9689889 34.5920604,96.7480333 34.9130769,96.3644111 C35.2340934,95.9807889 35.3699341,95.4751667 35.2834286,94.9824222 L32.2050495,77.3344444 L37.956989,77.3344444 L74.7157418,90.9028778 C75.1820604,91.0757111 75.6693297,91.1604333 76.1545714,91.1604333 C76.9952967,91.1604333 77.8299396,90.9049111 78.5375275,90.4101333 C79.653989,89.6293333 80.3210275,88.3476556 80.3210275,86.9826111 L80.3210275,70.5295556 C86.3149121,69.6986 90.9497143,64.5407111 90.9497143,58.3044778 Z M5.2470989,63.9991667 C4.58749451,63.9991667 4.05156593,63.4610111 4.05156593,62.7995 L4.05156593,53.3953333 C4.05156593,52.7338222 4.58749451,52.1956667 5.2470989,52.1956667 L11.4052088,52.1956667 L11.4052088,63.9984889 L5.2470989,63.9984889 L5.2470989,63.9991667 Z M14.7843297,73.1559444 L14.7843297,65.6936111 L14.7843297,50.5019 L14.7843297,43.0395667 C14.7843297,42.6037556 15.1371099,42.2499556 15.5716648,42.2499556 L36.5668187,42.2499556 L36.5668187,73.9455556 L30.2451593,73.9455556 C30.2431319,73.9455556 30.2417802,73.9455556 30.2397527,73.9455556 L15.5723407,73.9455556 C15.1377857,73.9455556 14.7843297,73.5910778 14.7843297,73.1559444 Z M31.6089725,93.5787444 L27.9953407,93.5787444 L23.0057308,77.3344444 L28.7745659,77.3344444 L31.6089725,93.5787444 Z M76.9419066,86.9819333 C76.9419066,87.3398 76.7310495,87.5411 76.6053462,87.6292111 C76.4796429,87.7166444 76.2187747,87.8461 75.8835659,87.7227444 L39.9466154,74.4579556 L39.9466154,41.7375556 L75.8842418,28.4727667 C76.2187747,28.3494111 76.4796429,28.4781889 76.6053462,28.5663 C76.7310495,28.6544111 76.9419066,28.8557111 76.9419066,29.2135778 L76.9419066,47.2309444 L76.9419066,68.9645667 L76.9419066,86.9819333 Z M80.3210275,67.1094889 L80.3210275,49.0860222 C84.4455824,49.8803778 87.5712692,53.5261444 87.5712692,57.8903556 L87.5712692,58.3044778 C87.5705934,62.6693667 84.4449066,66.3151333 80.3210275,67.1094889 Z" id="Shape"></path>
                <path d="M9.78728571,33.9383667 L35.4706319,33.9383667 C37.100044,33.9383667 38.4253352,32.6092444 38.4253352,30.9751222 L38.4253352,3.18013333 C38.4253352,1.54601111 37.100044,0.216888889 35.4706319,0.216888889 L9.78728571,0.216888889 C8.15787363,0.216888889 6.83258242,1.54601111 6.83258242,3.18013333 L6.83258242,30.9751222 C6.83258242,32.6092444 8.15787363,33.9383667 9.78728571,33.9383667 Z M10.2117033,3.60577778 L35.0462143,3.60577778 L35.0462143,30.5494778 L10.2117033,30.5494778 L10.2117033,3.60577778 Z" id="Shape"></path>
                <path d="M72.7713956,96.0844889 L44.1171264,96.0844889 C41.3746319,96.0844889 39.1437363,98.3225111 39.1437363,101.072256 L39.1437363,116.794667 C39.1437363,119.545089 41.3746319,121.782433 44.1171264,121.782433 L72.7713956,121.782433 C75.5138901,121.782433 77.7441099,119.544411 77.7441099,116.794667 L77.7441099,101.072256 C77.7441099,98.3218333 75.5132143,96.0844889 72.7713956,96.0844889 Z M74.364989,116.794667 C74.364989,117.676456 73.649967,118.393544 72.7713956,118.393544 L44.1171264,118.393544 C43.2378791,118.393544 42.5228571,117.675778 42.5228571,116.794667 L42.5228571,101.072256 C42.5228571,100.190467 43.2378791,99.4733778 44.1171264,99.4733778 L72.7713956,99.4733778 C73.6506429,99.4733778 74.364989,100.191144 74.364989,101.072256 L74.364989,116.794667 Z" id="Shape"></path>
                <path d="M84.4638297,39.5598556 C84.2448626,40.1759556 84.3989505,40.8645778 84.8605385,41.3268222 C85.3221264,41.7911 86.0107912,41.9422444 86.6224121,41.7246778 L93.1900714,39.3741444 C96.2346593,41.2576889 99.7198846,42.2492778 103.324055,42.2492778 C113.986533,42.2492778 122.661412,33.55 122.661412,22.8567 C122.661412,12.1634 113.987209,3.46344444 103.324731,3.46344444 C92.6622527,3.46344444 83.9880495,12.1634 83.9880495,22.8567 C83.9880495,26.4448556 84.9619121,29.9177889 86.8136703,32.9542333 L84.4638297,39.5598556 Z M103.324731,6.85233333 C112.124637,6.85233333 119.282967,14.0320333 119.282967,22.8567 C119.282967,31.6813667 112.123962,38.8603889 103.324731,38.8603889 C100.108484,38.8603889 97.008478,37.9047222 94.3585714,36.0964111 C94.0747253,35.9025667 93.7428956,35.8022556 93.4083626,35.8022556 C93.2171044,35.8022556 93.0251703,35.8347889 92.8406703,35.9012111 L88.844522,37.3313222 L90.2745659,33.3087111 C90.4556868,32.8017333 90.3840495,32.2385 90.0839835,31.7925222 C88.3065659,29.1491889 87.3664945,26.0592 87.3664945,22.8560222 C87.3664945,14.0320333 94.5255,6.85233333 103.324731,6.85233333 Z" id="Shape"></path>
                <path d="M113.668896,77.0606222 L92.9805659,77.0606222 C90.8260385,77.0606222 89.0743022,78.8181 89.0743022,80.9781778 L89.0743022,101.726311 C89.0743022,103.887067 90.8267143,105.643867 92.9805659,105.643867 L113.668896,105.643867 C115.823423,105.643867 117.575159,103.886389 117.575159,101.726311 L117.575159,80.9781778 C117.575835,78.8181 115.823423,77.0606222 113.668896,77.0606222 Z M114.196714,101.726989 C114.196714,102.019111 113.960176,102.255656 113.669571,102.255656 L92.9812418,102.255656 C92.6899615,102.255656 92.4540989,102.018433 92.4540989,101.726989 L92.4540989,80.9788556 C92.4540989,80.6867333 92.6906374,80.4501889 92.9812418,80.4501889 L113.669571,80.4501889 C113.960852,80.4501889 114.196714,80.6874111 114.196714,80.9788556 L114.196714,101.726989 Z" id="Shape"></path>
            </g>
            <path d="M109.41694,92.1015555 L101.072656,97.7686186 C100.191274,98.3674508 99,97.734342 99,96.6670631 L99,85.3329369 C99,84.265658 100.191274,83.6325492 101.072656,84.2313814 L109.41694,89.8984445 C110.194353,90.4267072 110.194353,91.5739649 109.41694,92.1015555 Z" id="Shape" fill="#B8D432"></path>
        </g>
    </g>
</svg>