<?xml version="1.0" encoding="UTF-8" standalone="no"?>
<svg width="56px" height="53px" viewBox="0 0 56 53" version="1.1" xmlns="http://www.w3.org/2000/svg" xmlns:xlink="http://www.w3.org/1999/xlink">
    <!-- Generator: Sketch 48.1 (47250) - http://www.bohemiancoding.com/sketch -->
    <title>review</title>
    <desc>Created with Sketch.</desc>
    <defs></defs>
    <g id="0000" stroke="none" stroke-width="1" fill="none" fill-rule="evenodd" transform="translate(-675.000000, -1415.000000)">
        <g id="review" transform="translate(675.000000, 1415.000000)" fill-rule="nonzero">
            <path d="M16.6397851,10.5274574 L14.1305328,11.9053813 C13.5628705,12.2170633 12.8992909,11.7136333 13.0078105,11.0532653 L13.4869768,8.13477533 C13.5299646,7.87252953 13.4467896,7.60501835 13.2644767,7.41941326 L11.2345309,5.35245422 C10.7752481,4.88485812 11.0286938,4.0701849 11.6634282,3.97379897 L14.4688338,3.54803349 C14.7208792,3.50971313 14.9387585,3.34443832 15.0514788,3.10588679 L16.3061049,0.450520139 C16.5899361,-0.15017338 17.4100639,-0.15017338 17.6938951,0.450520139 L18.9485212,3.10588679 C19.0612415,3.34443832 19.2791208,3.50985939 19.5311662,3.54803349 L22.3365718,3.97379897 C22.9713062,4.0701849 23.2247519,4.88485812 22.7654691,5.35245422 L20.7355233,7.41941326 C20.5532104,7.60516461 20.4698954,7.8726758 20.5130232,8.13477533 L20.9921895,11.0532653 C21.1005691,11.713487 20.4371295,12.2170633 19.8694672,11.9053813 L17.3602149,10.5274574 C17.1344942,10.4037207 16.8652257,10.4037207 16.6397851,10.5274574 Z" id="Shape" fill="#B8D432"></path>
            <path d="M16.6397851,27.5274574 L14.1305328,28.9053813 C13.5628705,29.2170633 12.8992909,28.7136333 13.0078105,28.0532653 L13.4869768,25.1347753 C13.5299646,24.8725295 13.4467896,24.6050183 13.2644767,24.4194133 L11.2345309,22.3524542 C10.7752481,21.8848581 11.0286938,21.0701849 11.6634282,20.973799 L14.4688338,20.5480335 C14.7208792,20.5097131 14.9387585,20.3444383 15.0514788,20.1058868 L16.3061049,17.4505201 C16.5899361,16.8498266 17.4100639,16.8498266 17.6938951,17.4505201 L18.9485212,20.1058868 C19.0612415,20.3444383 19.2791208,20.5098594 19.5311662,20.5480335 L22.3365718,20.973799 C22.9713062,21.0701849 23.2247519,21.8848581 22.7654691,22.3524542 L20.7355233,24.4194133 C20.5532104,24.6051646 20.4698954,24.8726758 20.5130232,25.1347753 L20.9921895,28.0532653 C21.1005691,28.713487 20.4371295,29.2170633 19.8694672,28.9053813 L17.3602149,27.5274574 C17.1344942,27.4037207 16.8652257,27.4037207 16.6397851,27.5274574 Z" id="Shape" fill="#B8D432"></path>
            <rect id="Rectangle-path" fill="#AAB1BA" x="9" y="37" width="9" height="16"></rect>
            <path d="M55.999857,33.7320892 C55.999857,32.2907517 54.8015945,31.1224275 53.3236422,31.1224275 L41.8540683,31.1224275 C39.8437614,31.1224275 38.2140958,29.5332891 38.2140958,27.5729753 L38.2140958,20.0890913 C38.2140958,17.2785041 35.877484,15 32.9952195,15 L31.241009,15 L31.241009,27.5515023 C31.241009,32.546754 27.0882717,36.5963589 21.9656281,36.5963589 L19,36.5963589 L19,52 L47.0859568,52 L53.3237852,52 C54.8018805,52 56,50.8315364 56,49.3903383 C56,47.9490008 54.8017375,46.7806766 53.3237852,46.7806766 C54.8018805,46.7806766 56,45.612213 56,44.1710149 C56,42.7296774 54.8017375,41.5613532 53.3237852,41.5613532 C54.8018805,41.5613532 56,40.3928896 56,38.9516915 C56,37.510354 54.8017375,36.3420298 53.3237852,36.3420298 C54.8015945,36.3418904 55.999857,35.1734267 55.999857,33.7320892 Z" id="Shape" fill="#FFFFFF"></path>
            <path d="M42.679278,11.4912103 C42.679278,11.1061711 42.996546,10.7939281 43.3877819,10.7939281 L44.2143224,10.7939281 L44.2143224,9.98047873 C44.2143224,9.59543951 44.5315904,9.28319655 44.9228262,9.28319655 C45.314062,9.28319655 45.63133,9.59543951 45.63133,9.98047873 L45.63133,10.7939281 L46.4578706,10.7939281 C46.8491064,10.7939281 47.1663744,11.1061711 47.1663744,11.4912103 C47.1663744,11.8762495 46.8491064,12.1884925 46.4578706,12.1884925 L45.63133,12.1884925 L45.63133,13.0019419 C45.63133,13.3869811 45.314062,13.699224 44.9228262,13.699224 C44.5315904,13.699224 44.2143224,13.3869811 44.2143224,13.0019419 L44.2143224,12.1884925 L43.3877819,12.1884925 C42.996546,12.1884925 42.679278,11.8762495 42.679278,11.4912103 Z M43.3877819,20.3439048 L44.2143224,20.3439048 L44.2143224,21.1573542 C44.2143224,21.5423934 44.5315904,21.8546364 44.9228262,21.8546364 C45.314062,21.8546364 45.63133,21.5423934 45.63133,21.1573542 L45.63133,20.3439048 L46.4578706,20.3439048 C46.8491064,20.3439048 47.1663744,20.0316619 47.1663744,19.6466227 C47.1663744,19.2615834 46.8491064,18.9493405 46.4578706,18.9493405 L45.63133,18.9493405 L45.63133,18.1358911 C45.63133,17.7508519 45.314062,17.4386089 44.9228262,17.4386089 C44.5315904,17.4386089 44.2143224,17.7508519 44.2143224,18.1358911 L44.2143224,18.9493405 L43.3877819,18.9493405 C42.996546,18.9493405 42.679278,19.2615834 42.679278,19.6466227 C42.679278,20.0316619 42.996546,20.3439048 43.3877819,20.3439048 Z M10.0396408,6.30008394 C9.63012558,5.90723516 9.4854491,5.3305828 9.66229166,4.79520954 C9.83899251,4.25997574 10.3003702,3.87716782 10.866323,3.79614363 L13.7052978,3.39018595 C13.7295287,3.38669954 13.7506421,3.37163824 13.7614113,3.3500225 L15.0309085,0.818330364 C15.283986,0.313637524 15.7965177,4.97379915e-14 16.368422,4.97379915e-14 C16.9403263,4.97379915e-14 17.4528579,0.313498067 17.7059355,0.818330364 L18.9755743,3.35016195 C18.9864853,3.3717777 19.007457,3.386839 19.0316878,3.39032541 L21.8705209,3.79628309 C22.4364738,3.87730728 22.8978515,4.2601152 23.074694,4.795349 C23.2513949,5.3305828 23.1068601,5.90723516 22.6972032,6.30022339 L20.6428255,8.27102174 C20.6252546,8.28789597 20.6171777,8.31216139 20.6214287,8.3361479 L21.1063287,11.1187222 C21.2029686,11.6734799 20.9756806,12.2236355 20.5128859,12.5544262 C20.251448,12.7414372 19.9455161,12.8364071 19.6376003,12.8364071 C19.4005349,12.8364071 19.1623359,12.7802061 18.942133,12.6662702 L16.4028553,11.3524511 C16.3810334,11.3410157 16.3551021,11.3411552 16.3334219,11.3524511 L13.7942859,12.6662702 C13.2881308,12.92803 12.6861859,12.8853563 12.223533,12.5544262 C11.76088,12.2236355 11.5334502,11.6734799 11.6300902,11.1187222 L12.1149902,8.33600844 C12.1190995,8.31216139 12.1111642,8.28789597 12.0935934,8.27102174 L10.0396408,6.30008394 Z M11.0287121,5.30157586 L13.0830898,7.27223475 C13.4346494,7.60957987 13.5950546,8.09530663 13.512018,8.57168982 L13.027118,11.3544035 C13.0245674,11.3690465 13.0191827,11.3993085 13.0567334,11.4262236 C13.0944258,11.4529992 13.1219158,11.4387747 13.1352357,11.4318019 L15.6745133,10.1179828 C15.6745133,10.1179828 15.6745133,10.1179828 15.6745133,10.1179828 C15.8917406,10.0055809 16.1300813,9.94937995 16.3685637,9.94937995 C16.6069044,9.94937995 16.8452451,10.0055809 17.0624723,10.1179828 L19.60175,11.4318019 C19.6150699,11.4387747 19.6428432,11.4528598 19.6802522,11.4262236 C19.7178029,11.399448 19.7124183,11.3690465 19.7098677,11.3544035 L19.2249677,8.57168982 C19.1420727,8.09530663 19.302478,7.60957987 19.6538959,7.27237421 L21.7082736,5.30157586 C21.7190428,5.29125608 21.7414315,5.26964033 21.7271198,5.22626938 C21.712808,5.18289843 21.6819172,5.17843583 21.6668969,5.17634398 L18.8279221,4.77038629 C18.3418885,4.70079753 17.9220292,4.40054783 17.7048019,3.96725668 L16.435163,1.43556455 C16.4285031,1.42231619 16.4146164,1.39470381 16.3682803,1.39470381 C16.3219441,1.39470381 16.3080575,1.42231619 16.3013975,1.43556455 L15.0317587,3.96739614 C14.8143897,4.40068728 14.3945304,4.70079753 13.9087801,4.77038629 L11.0696636,5.17648343 C11.0547851,5.17857528 11.0237526,5.18303789 11.0094408,5.22640884 C10.9955541,5.26964033 11.0179429,5.29125608 11.0287121,5.30157586 Z M10.0396408,23.0284412 C9.63012558,22.6355924 9.4854491,22.0589401 9.66229166,21.5235668 C9.83899251,20.988333 10.3003702,20.6055251 10.866323,20.5245009 L13.7052978,20.1185432 C13.7295287,20.1150568 13.7506421,20.0999955 13.7614113,20.0783798 L15.0309085,17.5466876 C15.283986,17.0419948 15.7965177,16.7283573 16.368422,16.7283573 C16.9403263,16.7283573 17.4528579,17.0418553 17.7059355,17.5466876 L18.9755743,20.0785192 C18.9864853,20.100135 19.007457,20.1151963 19.0316878,20.1186827 L21.8705209,20.5246404 C22.4364738,20.6056646 22.8978515,20.9884725 23.074694,21.5237063 C23.2513949,22.0589401 23.1068601,22.6355924 22.6972032,23.0285807 L20.6428255,24.999379 C20.6252546,25.0162533 20.6171777,25.0405187 20.6214287,25.0645052 L21.1063287,27.8470794 C21.2029686,28.4018371 20.9756806,28.9519928 20.5128859,29.2827834 C20.0500912,29.6135741 19.4481464,29.6563872 18.942133,29.3943486 L16.402997,28.080669 C16.3811751,28.0692335 16.3552438,28.0692335 16.3335636,28.080669 L13.7944276,29.3944881 C13.5742246,29.508424 13.3360256,29.5647644 13.0989603,29.5647644 C12.7910445,29.5647644 12.4851126,29.4697945 12.2236747,29.2829229 C11.76088,28.9519928 11.5335919,28.4019766 11.6302319,27.8472189 L12.1151319,25.0645052 C12.1192412,25.0406581 12.1113059,25.0163927 12.0937351,24.9995185 L10.0396408,23.0284412 Z M11.0287121,22.0297937 L13.0830898,24.0004526 C13.4346494,24.3377977 13.5950546,24.8235245 13.512018,25.2999076 L13.027118,28.0826214 C13.0245674,28.0972643 13.0191827,28.1275263 13.0567334,28.1544414 C13.0942841,28.1813565 13.1217741,28.166853 13.1352357,28.1600197 L15.6745133,26.8462006 C15.6745133,26.8462006 15.6745133,26.8462006 15.6745133,26.8462006 C16.1089679,26.6213968 16.6280178,26.6213968 17.0624723,26.8462006 L19.60175,28.1600197 C19.6150699,28.1669925 19.6428432,28.1813565 19.6802522,28.1544414 C19.7176612,28.1275263 19.7124183,28.0972643 19.7098677,28.0826214 L19.2249677,25.2999076 C19.1420727,24.8235245 19.302478,24.3377977 19.6538959,24.000592 L21.7082736,22.0297937 C21.7190428,22.0194739 21.7414315,21.9978582 21.7271198,21.9544872 C21.712808,21.9111163 21.6819172,21.9066537 21.6668969,21.9045618 L18.8279221,21.4986041 C18.3418885,21.4290154 17.9220292,21.1287657 17.7048019,20.6954745 L16.435163,18.1637824 C16.4285031,18.150534 16.4146164,18.1229216 16.3682803,18.1229216 C16.3219441,18.1229216 16.3080575,18.150534 16.3013975,18.1637824 L15.0317587,20.695614 C14.8143897,21.1289051 14.3945304,21.4290154 13.9087801,21.4986041 L11.0696636,21.9047013 C11.0547851,21.9067931 11.0237526,21.9112557 11.0094408,21.9546267 C10.9955541,21.9978582 11.0179429,22.0194739 11.0287121,22.0297937 Z M54.6997538,41.8623118 C55.4901607,42.4679711 56,43.41237 56,44.4723784 C56,45.5323868 55.4901607,46.4767858 54.6996121,47.0824451 C55.490019,47.6881044 56,48.6325033 56,49.6925117 C56,51.0339432 55.1838036,52.1905948 54.014914,52.7089544 C53.8862497,52.8845301 53.6779496,52.9998605 53.4411676,52.9998605 L52.639283,52.9998605 L46.4575872,52.9998605 L4.16373523,52.9998605 C3.77249942,52.9998605 3.45523142,52.6876176 3.45523142,52.3025784 C3.45523142,51.9175391 3.77249942,51.6052962 4.16373523,51.6052962 L14.1618577,51.6052962 L14.1618577,37.5939686 L8.98807942,37.5939686 C8.59684362,37.5939686 8.27957561,37.2817257 8.27957561,36.8966865 C8.27957561,36.5116472 8.59684362,36.1994043 8.98807942,36.1994043 L21.5641639,36.1994043 C26.2418478,36.1994043 30.0473635,32.4541622 30.0473635,27.8504264 L30.0473635,15.2969764 C30.0473635,14.9119372 30.3646315,14.5996942 30.7558673,14.5996942 L32.494394,14.5996942 C35.7367908,14.5996942 38.3746922,17.1958153 38.3746922,20.3868574 L38.3746922,27.593966 L38.3746922,27.8719027 C38.3746922,29.4449713 39.6750801,30.724763 41.2733231,30.724763 L46.307101,30.724763 C46.3174451,30.724763 46.3270808,30.7272732 46.3374249,30.7276916 C46.3773846,30.726297 46.4174859,30.724763 46.4577289,30.724763 L52.6394247,30.724763 C54.4924456,30.724763 56,32.20844 56,34.0321118 C56,35.0921202 55.4901607,36.0365192 54.6996121,36.6421785 C55.490019,37.2478378 56,38.1922367 56,39.2522451 C56,40.3122535 55.4901607,41.2566525 54.6997538,41.8623118 Z M52.6394247,32.1191879 L46.4577289,32.1191879 C45.386046,32.1191879 44.5141612,32.9772633 44.5141612,34.0319724 C44.5141612,35.0866814 45.386046,35.9447568 46.4577289,35.9447568 L52.6394247,35.9447568 C53.7111076,35.9447568 54.5829924,35.0866814 54.5829924,34.0319724 C54.5829924,32.9772633 53.7111076,32.1191879 52.6394247,32.1191879 Z M21.5643056,37.5939686 L19.3339356,37.5939686 L19.3339356,51.6054356 L43.7189365,51.6054356 C43.3281258,51.065042 43.0972953,50.4049946 43.0972953,49.6926512 C43.0972953,48.6326428 43.6071346,47.6882438 44.3975415,47.0825845 C43.6071346,46.4769252 43.0972953,45.5325262 43.0972953,44.4725179 C43.0972953,43.4125095 43.6071346,42.4681105 44.3975415,41.8624512 C43.6071346,41.2567919 43.0972953,40.3123929 43.0972953,39.2523846 C43.0972953,38.1923762 43.6071346,37.2479772 44.3975415,36.6423179 C43.6071346,36.0366586 43.0972953,35.0922596 43.0972953,34.0322513 C43.0972953,33.3199078 43.3281258,32.6598605 43.7189365,32.1194668 L41.2733231,32.1194668 C40.1585632,32.1194668 39.1412934,31.7013764 38.3746922,31.0160875 L38.3746922,31.9217176 C38.3746922,35.3162267 37.0315107,38.5076872 34.5925572,40.9080114 C34.4541155,41.0441209 34.2728802,41.1121756 34.0915033,41.1121756 C33.9101263,41.1121756 33.728891,41.0441209 33.5904494,40.9080114 C33.3137078,40.635653 33.3137078,40.1941339 33.5904494,39.9219149 C35.7617302,37.785024 36.9575429,34.943878 36.9575429,31.921857 L36.9575429,27.8721816 L36.9575429,27.5942449 L36.9575429,20.3871363 C36.9575429,17.965057 34.9553111,15.9945375 32.4942523,15.9945375 L31.4642294,15.9945375 L31.4642294,27.8507053 C31.4645128,33.223125 27.0231858,37.5939686 21.5643056,37.5939686 Z M15.5787236,51.6054356 L17.9167862,51.6054356 L17.9167862,37.5939686 L15.5787236,37.5939686 L15.5787236,51.6054356 Z M52.6394247,47.7797272 L46.4577289,47.7797272 C45.386046,47.7797272 44.5141612,48.6378027 44.5141612,49.6925117 C44.5141612,50.7472207 45.3861877,51.6054356 46.4578706,51.6054356 L52.6395664,51.6054356 C53.7112493,51.6054356 54.5831341,50.7473602 54.5831341,49.6926512 C54.5831341,48.6379421 53.7111076,47.7797272 52.6394247,47.7797272 Z M52.6394247,42.5595939 L46.4577289,42.5595939 C45.386046,42.5595939 44.5141612,43.4176694 44.5141612,44.4723784 C44.5141612,45.5270874 45.386046,46.3851629 46.4577289,46.3851629 L52.6394247,46.3851629 C53.7111076,46.3851629 54.5829924,45.5270874 54.5829924,44.4723784 C54.5829924,43.4176694 53.7111076,42.5595939 52.6394247,42.5595939 Z M52.6394247,41.1650296 C53.7111076,41.1650296 54.5829924,40.3069541 54.5829924,39.2522451 C54.5829924,38.1975361 53.7111076,37.3394606 52.6394247,37.3394606 L46.4577289,37.3394606 C45.386046,37.3394606 44.5141612,38.1975361 44.5141612,39.2522451 C44.5141612,40.3069541 45.386046,41.1650296 46.4577289,41.1650296 L52.6394247,41.1650296 Z M1.36670386,51.6054356 L0.708503817,51.6054356 C0.317268009,51.6054356 0,51.9176786 0,52.3027178 C0,52.687757 0.317268009,53 0.708503817,53 L1.36670386,53 C1.75793967,53 2.07520768,52.687757 2.07520768,52.3027178 C2.07520768,51.9176786 1.75793967,51.6054356 1.36670386,51.6054356 Z" id="Shape" fill="#1C1D21"></path>
        </g>
    </g>
</svg>