<?xml version="1.0" encoding="UTF-8" standalone="no"?>
<svg width="150px" height="127px" viewBox="0 0 150 127" version="1.1" xmlns="http://www.w3.org/2000/svg" xmlns:xlink="http://www.w3.org/1999/xlink">
    <!-- Generator: Sketch 48.1 (47250) - http://www.bohemiancoding.com/sketch -->
    <title>run-of-site</title>
    <desc>Created with Sketch.</desc>
    <defs></defs>
    <g id="0000" stroke="none" stroke-width="1" fill="none" fill-rule="evenodd" transform="translate(-1186.000000, -3513.000000)">
        <g id="run-of-site" transform="translate(1186.000000, 3513.000000)" fill-rule="nonzero">
            <g id="Group" transform="translate(2.000000, 34.000000)" fill="#D5D9B2">
                <path d="M88.9146067,82.3597059 L88.9146067,91.1126471 C88.9146067,91.8716912 88.302809,92.4802941 87.5550562,92.4802941 L25.4235955,92.4802941 C22.6433146,92.4802941 20.3932584,90.2168382 20.3932584,87.42 L20.3932584,82.3597059 L88.9146067,82.3597059 Z" id="Shape"></path>
                <polygon id="Shape" points="20.3932584 0.659205882 121 0.659205882 121 4.91122059 20.3932584 4.91122059"></polygon>
                <path d="M20.3932584,47.5400956 C10.8498933,47.5400956 2.8543764,40.8762353 0.751831461,31.92225 C0.39902809,33.4259779 0.211410112,34.9939853 0.211410112,36.6057574 C0.211410112,47.8177279 9.24698315,56.9071103 20.3925787,56.9071103 C31.5381742,56.9071103 40.5737472,47.8177279 40.5737472,36.6057574 C40.5737472,34.9939853 40.386809,33.4252941 40.0333258,31.92225 C37.9321404,40.8762353 29.9366236,47.5400956 20.3932584,47.5400956 Z" id="Shape"></path>
            </g>
            <path d="M29.3609593,72.0323168 C28.9370355,71.2617061 28.3000986,70.5911395 27.4655642,70.0395445 C26.6828816,69.5210722 25.4986975,69.0066557 23.8471462,68.4652003 C22.0967961,67.8912981 21.2888882,67.3782336 20.9210204,67.0503861 C20.4886881,66.6637288 20.278478,66.1128097 20.278478,65.36721 C20.278478,64.5837558 20.5181176,63.9868705 21.0128122,63.5400515 C21.523623,63.0763331 22.2558551,62.8512337 23.2515507,62.8512337 C24.2002993,62.8512337 24.9157146,63.1297351 25.4384373,63.7016093 C25.9940929,64.3106622 26.2645633,65.1421106 26.2645633,66.2425968 C26.2645633,66.7799964 26.7158145,67.2153238 27.2728715,67.2153238 L28.8473458,67.2153238 C29.4044028,67.2153238 29.855654,66.7799964 29.855654,66.2425968 C29.855654,64.3228297 29.3469453,62.762681 28.3442427,61.604737 C27.6470456,60.7982997 26.7550537,60.2250734 25.6808797,59.8918181 C25.2625614,59.762031 24.9738728,59.3915971 24.9738728,58.9670853 L24.9738728,57.972727 C24.9738728,57.4353275 24.5226216,57 23.9655646,57 L22.6167159,57 C22.0596589,57 21.6084077,57.4353275 21.6084077,57.972727 L21.6084077,58.9407223 C21.6084077,59.3713179 21.3127121,59.7478356 20.8852847,59.8708629 C19.866466,60.1642358 19.0011007,60.6556691 18.3011008,61.341783 C17.2304303,62.3895432 16.688088,63.7550113 16.688088,65.3996568 C16.688088,66.9665653 17.184184,68.2738996 18.1630628,69.2858331 C19.0956953,70.2490965 20.6092086,71.0393105 22.7631623,71.6909497 C24.5765755,72.2972987 25.3865854,72.8299665 25.7474463,73.1713335 C26.1839827,73.5836778 26.3969957,74.1136417 26.3969957,74.7916439 C26.3969957,75.5467072 26.1335323,76.1138497 25.5680669,76.5775681 C24.9619609,77.0744092 24.1736727,77.315732 23.1590582,77.315732 C21.9839833,77.315732 21.1144138,77.0365546 20.5027022,76.4619764 C19.8979975,75.894834 19.6037033,75.1019161 19.6037033,74.0386085 C19.6037033,73.501209 19.1524521,73.0658815 18.5953951,73.0658815 L17.0083082,73.0658815 C16.4512512,73.0658815 16,73.501209 16,74.0386085 C16,75.9678392 16.585085,77.5293399 17.7398396,78.6784962 C18.5414411,79.4761459 19.5679675,80.0297689 20.8054048,80.3332813 C21.2524518,80.4434651 21.5684678,80.8287705 21.5684678,81.2742376 L21.5684678,82.027273 C21.5684678,82.5646725 22.019719,83 22.576776,83 L23.913012,83 C24.470069,83 24.9213202,82.5646725 24.9213202,82.027273 L24.9213202,81.2289473 C24.9213202,80.7929439 25.2240229,80.4123703 25.6584573,80.2947508 C26.7214201,80.0067857 27.620419,79.5187323 28.3421406,78.8359982 C29.4422406,77.7949978 29.9999983,76.4254738 29.9999983,74.7666329 C30.000699,73.7242805 29.7855839,72.8042794 29.3609593,72.0323168 Z" id="Shape" fill="#B8D432"></path>
            <g id="Group" fill="#3F3F3F">
                <path d="M90.6657609,114.548671 L22.4184783,114.548671 C21.4802989,114.548671 20.7201087,115.311919 20.7201087,116.253873 C20.7201087,117.195827 21.4802989,117.959075 22.4184783,117.959075 L90.6657609,117.959075 C91.6039402,117.959075 92.3641304,117.195827 92.3641304,116.253873 C92.3641304,115.312601 91.6039402,114.548671 90.6657609,114.548671 Z" id="Shape"></path>
                <path d="M47.4701087,49.8839884 C47.4701087,48.1910636 46.0985054,46.8146243 44.4130435,46.8146243 L33.6277174,46.8146243 C32.689538,46.8146243 31.9293478,47.5778728 31.9293478,48.5198266 C31.9293478,49.4617803 32.689538,50.2250289 33.6277174,50.2250289 L44.0733696,50.2250289 L44.0733696,60.7127052 C44.0733696,61.654659 44.8335598,62.4179075 45.7717391,62.4179075 C46.7099185,62.4179075 47.4701087,61.654659 47.4701087,60.7127052 L47.4701087,49.8839884 Z" id="Shape"></path>
                <path d="M56.0740489,63.7820694 L66.8600543,63.7820694 C68.5455163,63.7820694 69.9171196,62.4056301 69.9171196,60.7127052 L69.9171196,49.8839884 C69.9171196,48.1910636 68.5455163,46.8146243 66.8600543,46.8146243 L56.0740489,46.8146243 C54.388587,46.8146243 53.0169837,48.1910636 53.0169837,49.8839884 L53.0169837,60.7127052 C53.0169837,62.404948 54.388587,63.7820694 56.0740489,63.7820694 Z M56.4137228,50.2250289 L66.5203804,50.2250289 L66.5203804,60.3716647 L56.4137228,60.3716647 L56.4137228,50.2250289 Z" id="Shape"></path>
                <path d="M53.0169837,83.249341 C53.0169837,84.9415838 54.388587,86.3187052 56.0740489,86.3187052 L66.8600543,86.3187052 C68.5455163,86.3187052 69.9171196,84.9415838 69.9171196,83.249341 L69.9171196,72.4213064 C69.9171196,70.7283815 68.5455163,69.3519422 66.8600543,69.3519422 L56.0740489,69.3519422 C54.388587,69.3519422 53.0169837,70.7283815 53.0169837,72.4213064 L53.0169837,83.249341 Z M56.4137228,72.7623468 L66.5203804,72.7623468 L66.5203804,82.9083006 L56.4137228,82.9083006 L56.4137228,72.7623468 Z" id="Shape"></path>
                <path d="M78.5210598,63.7820694 L89.3063859,63.7820694 C90.9918478,63.7820694 92.3634511,62.4056301 92.3634511,60.7127052 L92.3634511,49.8839884 C92.3634511,48.1910636 90.9918478,46.8146243 89.3063859,46.8146243 L78.5210598,46.8146243 C76.8355978,46.8146243 75.4639946,48.1910636 75.4639946,49.8839884 L75.4639946,60.7127052 C75.4639946,62.404948 76.8355978,63.7820694 78.5210598,63.7820694 Z M78.8607337,50.2250289 L88.966712,50.2250289 L88.966712,60.3716647 L78.8607337,60.3716647 L78.8607337,50.2250289 Z" id="Shape"></path>
                <path d="M47.4701087,78.4058844 C47.4701087,77.4639306 46.7099185,76.7006821 45.7717391,76.7006821 C44.8335598,76.7006821 44.0733696,77.4639306 44.0733696,78.4058844 L44.0733696,82.9089827 L41.9497283,82.9089827 C41.0115489,82.9089827 40.2513587,83.6722312 40.2513587,84.614185 C40.2513587,85.5561387 41.0115489,86.3193873 41.9497283,86.3193873 L44.4130435,86.3193873 C46.0985054,86.3193873 47.4701087,84.9422659 47.4701087,83.2500231 L47.4701087,78.4058844 Z" id="Shape"></path>
                <path d="M33.9334239,105.445618 C33.7764946,104.667364 33.0903533,104.081457 32.2690217,104.081457 C31.3308424,104.081457 30.5706522,104.844705 30.5706522,105.786659 C30.5706522,107.478902 31.9422554,108.856023 33.6277174,108.856023 L44.4130435,108.856023 C46.0985054,108.856023 47.4701087,107.478902 47.4701087,105.786659 L47.4701087,94.9579422 C47.4701087,93.2650173 46.0985054,91.888578 44.4130435,91.888578 L34.8165761,91.888578 C33.8783967,91.888578 33.1182065,92.6518266 33.1182065,93.5937803 C33.1182065,94.5357341 33.8783967,95.2989827 34.8165761,95.2989827 L44.0733696,95.2989827 L44.0733696,105.445618 L33.9334239,105.445618 Z" id="Shape"></path>
                <path d="M53.0169837,105.786659 C53.0169837,107.478902 54.388587,108.856023 56.0740489,108.856023 L66.8600543,108.856023 C68.5455163,108.856023 69.9171196,107.478902 69.9171196,105.786659 L69.9171196,94.9579422 C69.9171196,93.2650173 68.5455163,91.888578 66.8600543,91.888578 L56.0740489,91.888578 C54.388587,91.888578 53.0169837,93.2650173 53.0169837,94.9579422 L53.0169837,105.786659 Z M56.4137228,95.2989827 L66.5203804,95.2989827 L66.5203804,105.445618 L56.4137228,105.445618 L56.4137228,95.2989827 Z" id="Shape"></path>
                <path d="M75.4639946,105.786659 C75.4639946,107.478902 76.8355978,108.856023 78.5210598,108.856023 L89.3063859,108.856023 C90.9918478,108.856023 92.3634511,107.478902 92.3634511,105.786659 L92.3634511,94.9579422 C92.3634511,93.2650173 90.9918478,91.888578 89.3063859,91.888578 L78.5210598,91.888578 C76.8355978,91.888578 75.4639946,93.2650173 75.4639946,94.9579422 L75.4639946,105.786659 Z M78.8607337,95.2989827 L88.966712,95.2989827 L88.966712,105.445618 L78.8607337,105.445618 L78.8607337,95.2989827 Z" id="Shape"></path>
                <path d="M61.6793478,17.0124624 L83.7017663,17.0124624 C84.6399457,17.0124624 85.4001359,16.2492139 85.4001359,15.3072601 C85.4001359,14.3653064 84.6399457,13.6020578 83.7017663,13.6020578 L61.6793478,13.6020578 C60.7411685,13.6020578 59.9809783,14.3653064 59.9809783,15.3072601 C59.9809783,16.2492139 60.7411685,17.0124624 61.6793478,17.0124624 Z" id="Shape"></path>
                <path d="M117.935462,13.6020578 L106.923913,13.6020578 L106.883832,13.6020578 C105.945652,13.6020578 105.185462,14.3653064 105.185462,15.3072601 C105.185462,16.2492139 105.945652,17.0124624 106.883832,17.0124624 L106.923913,17.0124624 L117.935462,17.0124624 C119.77038,17.0124624 121.263587,18.5116763 121.263587,20.354659 L121.263587,37.2968671 L24.1168478,37.2968671 L24.1168478,20.355341 C24.1168478,18.5123584 25.6100543,17.0131445 27.4456522,17.0131445 L38.4565217,17.0131445 C39.3947011,17.0131445 40.1548913,16.249896 40.1548913,15.3079422 C40.1548913,14.3659884 39.3947011,13.6027399 38.4565217,13.6027399 L27.4456522,13.6027399 C23.7370924,13.6027399 20.7201087,16.6318613 20.7201087,20.355341 L20.7201087,39.0027514 L20.7201087,43.9942197 C20.7201087,44.9361734 21.4802989,45.699422 22.4184783,45.699422 C23.3566576,45.699422 24.1168478,44.9361734 24.1168478,43.9942197 L24.1168478,40.7079538 L121.263587,40.7079538 L121.263587,62.0768671 C121.263587,63.0188208 122.023777,63.7820694 122.961957,63.7820694 C123.900136,63.7820694 124.660326,63.0188208 124.660326,62.0768671 L124.660326,39.0027514 L124.660326,20.355341 C124.660326,16.6318613 121.644022,13.6020578 117.935462,13.6020578 Z" id="Shape"></path>
                <path d="M50.0679348,29.6493757 C53.6610054,29.6493757 56.5842391,26.7143815 56.5842391,23.1068555 L56.5842391,6.98314451 C56.5842391,3.3756185 53.6610054,0.440624277 50.0679348,0.440624277 C46.4748641,0.440624277 43.5516304,3.3756185 43.5516304,6.98314451 L43.5516304,23.1068555 C43.5516304,26.7143815 46.4748641,29.6493757 50.0679348,29.6493757 Z M46.9483696,6.98314451 C46.9483696,5.25611561 48.3478261,3.8510289 50.0679348,3.8510289 C51.7880435,3.8510289 53.1875,5.25611561 53.1875,6.98314451 L53.1875,23.1068555 C53.1875,24.8338844 51.7880435,26.2389711 50.0679348,26.2389711 C48.3478261,26.2389711 46.9483696,24.8338844 46.9483696,23.1068555 L46.9483696,6.98314451 Z" id="Shape"></path>
                <path d="M95.3125,29.1228092 C98.9055707,29.1228092 101.828804,26.2764855 101.828804,22.7780925 L101.828804,7.31190751 C101.828804,3.81283237 98.9055707,0.966508671 95.3125,0.966508671 C91.7201087,0.966508671 88.796875,3.81283237 88.796875,7.31190751 L88.796875,22.7787746 C88.796875,26.2764855 91.7201087,29.1228092 95.3125,29.1228092 Z M92.1936141,7.31190751 C92.1936141,5.69401156 93.5930707,4.37691329 95.3125,4.37691329 C97.0326087,4.37691329 98.4320652,5.69401156 98.4320652,7.31190751 L98.4320652,22.7787746 C98.4320652,24.3966705 97.0326087,25.7130867 95.3125,25.7130867 C93.5930707,25.7130867 92.1936141,24.3966705 92.1936141,22.7787746 L92.1936141,7.31190751 Z" id="Shape"></path>
                <path d="M75.4639946,83.249341 C75.4639946,84.9415838 76.8355978,86.3187052 78.5210598,86.3187052 L89.3063859,86.3187052 C90.9918478,86.3187052 92.3634511,84.9415838 92.3634511,83.249341 L92.3634511,72.4213064 C92.3634511,70.7283815 90.9918478,69.3519422 89.3063859,69.3519422 L78.5210598,69.3519422 C76.8355978,69.3519422 75.4639946,70.7283815 75.4639946,72.4213064 L75.4639946,83.249341 Z M78.8607337,72.7623468 L88.966712,72.7623468 L88.966712,82.9083006 L78.8607337,82.9083006 L78.8607337,72.7623468 Z" id="Shape"></path>
                <path d="M111.633832,46.8146243 L100.848505,46.8146243 C99.1630435,46.8146243 97.7914402,48.1910636 97.7914402,49.8839884 L97.7914402,60.7127052 C97.7914402,62.4056301 99.1630435,63.7820694 100.848505,63.7820694 L111.633832,63.7820694 C113.319293,63.7820694 114.690897,62.4056301 114.690897,60.7127052 L114.690897,49.8839884 C114.690897,48.1910636 113.319973,46.8146243 111.633832,46.8146243 Z M111.294158,60.3716647 L101.188179,60.3716647 L101.188179,50.2250289 L111.294158,50.2250289 L111.294158,60.3716647 Z" id="Shape"></path>
                <path d="M22.4184783,109.911884 C22.8688859,109.911884 23.3009511,109.731815 23.6195652,109.412601 L31.6644022,101.334717 C32.328125,100.668324 32.328125,99.5885896 31.6644022,98.9235607 C31.0006793,98.2571676 29.9259511,98.2571676 29.2629076,98.9235607 L24.1175272,104.090324 L24.1175272,92.4997225 C35.3838315,91.6259769 44.2860054,82.1491445 44.2860054,70.6172023 C44.2860054,58.5116301 34.4769022,48.6630636 22.4191576,48.6630636 C10.361413,48.6630636 0.552309783,58.5116301 0.552309783,70.6172023 C0.552309783,82.1491445 9.4544837,91.6259769 20.720788,92.4997225 L20.720788,104.090324 L15.5747283,98.9235607 C14.9110054,98.2571676 13.8362772,98.2571676 13.1732337,98.9235607 C12.5101902,99.5899538 12.5101902,100.669006 13.1732337,101.334717 L21.21875,109.412601 C21.5360054,109.731815 21.9680707,109.911884 22.4184783,109.911884 Z M3.94836957,70.6165202 C3.94836957,60.3914451 12.2336957,52.0727861 22.4184783,52.0727861 C32.6032609,52.0727861 40.888587,60.3914451 40.888587,70.6165202 C40.888587,80.8422775 32.6032609,89.1609364 22.4184783,89.1609364 C12.2336957,89.1609364 3.94836957,80.8422775 3.94836957,70.6165202 Z" id="Shape"></path>
            </g>
            <path d="M145.323369,69 L101.676631,69 C99.0935565,69 97,71.0935565 97,73.6766308 L97,117.323369 C97,119.906443 99.0935565,122 101.676631,122 L145.323369,122 C147.906443,122 150,119.906443 150,117.323369 L150,73.6766308 C150,71.0935565 147.905763,69 145.323369,69 Z M108.119338,98.225368 L106.762441,98.225368 C105.99174,98.225368 105.366056,97.6003648 105.366056,96.8296637 L105.366056,94.1703363 C105.366056,93.3996352 105.991059,92.7739511 106.76176,92.7739511 L108.118657,92.7739511 L108.118657,98.225368 L108.119338,98.225368 Z M117.783059,110.971212 C117.042995,110.971212 116.36761,110.549778 116.042854,109.884606 L112.419469,102.464224 L110.70854,102.464224 C110.164556,102.464224 109.723377,102.023046 109.723377,101.479061 L109.723377,98.225368 L109.723377,92.7739511 L109.723377,89.5304704 C109.723377,88.9864861 110.164556,88.5446266 110.709221,88.5446266 L119.673728,88.5446266 L119.673728,102.464224 L117.48077,102.464224 L119.605644,108.379968 C120.058397,109.64223 119.123616,110.971212 117.783059,110.971212 Z M135.800581,91.1930607 L135.800581,99.8157901 L135.800581,106.96452 C135.800581,107.650117 135.117707,108.126018 134.475002,107.889089 L121.286617,103.034761 L121.286617,87.973409 L134.475002,83.1190813 C135.118388,82.8821519 135.801261,83.3587339 135.801261,84.0436503 L135.801261,91.1930607 L135.800581,91.1930607 Z M141.633263,95.5871464 C141.633263,97.9230789 139.739871,99.816471 137.403939,99.816471 L137.403939,91.1930607 C139.739871,91.1930607 141.633263,93.0864527 141.633263,95.4223852 L141.633263,95.5871464 Z" id="Shape" fill="#B8D432"></path>
        </g>
    </g>
</svg>