<?xml version="1.0" encoding="UTF-8" standalone="no"?>
<svg width="49px" height="66px" viewBox="0 0 49 66" version="1.1" xmlns="http://www.w3.org/2000/svg" xmlns:xlink="http://www.w3.org/1999/xlink">
    <!-- Generator: Sketch 48.1 (47250) - http://www.bohemiancoding.com/sketch -->
    <title>search (1)</title>
    <desc>Created with Sketch.</desc>
    <defs></defs>
    <g id="0000" stroke="none" stroke-width="1" fill="none" fill-rule="evenodd" transform="translate(-841.000000, -1413.000000)">
        <g id="search-(1)" transform="translate(841.000000, 1413.000000)" fill-rule="nonzero">
            <path d="M24.5000658,1 C12.0736226,1 2,11.1482038 2,23.6666476 C2,35.3505728 10.7755419,44.9681654 22.0487501,46.198918 L22.0487501,63.5305357 C22.0487501,64.894339 23.1462854,66 24.5000658,66 C25.8538463,66 26.9513816,64.894339 26.9513816,63.5305357 L26.9513816,46.1987853 C38.2244581,44.9681654 47,35.3504401 47,23.666515 C47,11.1482038 36.9265091,1 24.5000658,1 Z" id="Shape" fill="#AAB1BA"></path>
            <circle id="Oval" fill="#B8D432" cx="25" cy="23" r="18"></circle>
            <path d="M31.7408873,29 L18.2591127,29 C16.4591765,29 15,30.416226 15,32.1634584 L15,37.9465879 C17.832812,39.8704147 21.2802426,41 25,41 C28.7197574,41 32.167188,39.8704147 35,37.9465879 L35,32.1634584 C34.9998723,30.416226 33.5408235,29 31.7408873,29 Z" id="Shape" fill="#ECF4F7"></path>
            <path d="M23.4621341,29 L23,40.9142441 C23.6576691,40.9707538 24.3248905,41 24.9999276,41 C25.6751095,41 26.3421862,40.9707538 27,40.9142441 L26.5378659,29 L23.4621341,29 Z" id="Shape" fill="#B8D432"></path>
            <circle id="Oval" fill="#FFFFFF" cx="25.5" cy="20.5" r="8.5"></circle>
            <path d="M4.15532031,44.34012 C4.15532031,44.704704 3.8615111,45.00012 3.49920329,45.00012 L2.73377717,45.00012 L2.73377717,45.770076 C2.73377717,46.13466 2.43996797,46.430076 2.07766015,46.430076 C1.71535233,46.430076 1.42154313,46.13466 1.42154313,45.770076 L1.42154313,45.00012 L0.656117019,45.00012 C0.293809201,45.00012 0,44.704704 0,44.34012 C0,43.975536 0.293809201,43.68012 0.656117019,43.68012 L1.42154313,43.68012 L1.42154313,42.910296 C1.42154313,42.545712 1.71535233,42.250296 2.07766015,42.250296 C2.43996797,42.250296 2.73377717,42.545712 2.73377717,42.910296 L2.73377717,43.68012 L3.49920329,43.68012 C3.86164233,43.68012 4.15532031,43.975536 4.15532031,44.34012 Z M2.07766015,41.182812 C2.43996797,41.182812 2.73377717,40.887396 2.73377717,40.522812 L2.73377717,39.899376 C2.73377717,39.534792 2.43996797,39.239376 2.07766015,39.239376 C1.71535233,39.239376 1.42154313,39.534792 1.42154313,39.899376 L1.42154313,40.522812 C1.42154313,40.887396 1.71535233,41.182812 2.07766015,41.182812 Z M48.343883,1.429956 L47.5784569,1.429956 L47.5784569,0.66 C47.5784569,0.295548 47.2847789,0 46.9223398,0 C46.5599008,0 46.2662228,0.295548 46.2662228,0.66 L46.2662228,1.429956 L45.5009279,1.429956 C45.1384889,1.429956 44.8448109,1.725504 44.8448109,2.089956 C44.8448109,2.454408 45.1384889,2.749956 45.5009279,2.749956 L46.2662228,2.749956 L46.2662228,3.519912 C46.2662228,3.884364 46.5599008,4.179912 46.9223398,4.179912 C47.2847789,4.179912 47.5784569,3.884364 47.5784569,3.519912 L47.5784569,2.749956 L48.343883,2.749956 C48.706322,2.749956 49,2.454408 49,2.089956 C49,1.725504 48.706322,1.429956 48.343883,1.429956 Z M46.9223398,5.247264 C46.5599008,5.247264 46.2662228,5.542812 46.2662228,5.907264 L46.2662228,6.5307 C46.2662228,6.895152 46.5599008,7.1907 46.9223398,7.1907 C47.2847789,7.1907 47.5784569,6.895152 47.5784569,6.5307 L47.5784569,5.907264 C47.5784569,5.542812 47.2847789,5.247264 46.9223398,5.247264 Z M47.5784569,9.258216 L47.5784569,23.091816 C47.5784569,23.096568 47.5771446,23.100924 47.5771446,23.105544 C47.5772759,23.142108 47.5784569,23.178408 47.5784569,23.215104 C47.5784569,36.015936 37.2254552,46.430208 24.5000656,46.430208 C14.4627875,46.430208 5.90308482,39.95046 2.7339084,30.93156 L2.7339084,37.171992 C2.7339084,37.536576 2.44009919,37.831992 2.07779138,37.831992 C1.71548356,37.831992 1.42167436,37.536576 1.42167436,37.171992 L1.42167436,23.338392 C1.42167436,23.334036 1.42285537,23.330076 1.42298659,23.32572 C1.42285537,23.28876 1.42154313,23.252064 1.42154313,23.215104 C1.42154313,10.414272 11.7745448,0 24.5000656,0 C34.537475,0 43.0971776,6.47988 46.2662228,15.498912 L46.2662228,9.258216 C46.2662228,8.893764 46.5599008,8.598216 46.9223398,8.598216 C47.2847789,8.598216 47.5784569,8.893632 47.5784569,9.258216 Z M46.2662228,23.215104 C46.2662228,11.14212 36.5020206,1.32 24.5000656,1.32 C12.4981107,1.32 2.73377717,11.14212 2.73377717,23.215104 C2.73377717,35.287956 12.4981107,45.110208 24.5000656,45.110208 C36.5020206,45.110208 46.2662228,35.287956 46.2662228,23.215104 Z M43.1066257,23.215104 C43.1066257,33.535524 34.7597674,41.931648 24.5000656,41.931648 C14.2403638,41.931648 5.89350551,33.535524 5.89350551,23.215104 C5.89350551,12.894684 14.2403638,4.49856 24.5000656,4.49856 C34.7597674,4.498428 43.1066257,12.894684 43.1066257,23.215104 Z M41.7943917,23.215104 C41.7943917,13.622664 34.0362016,5.81856 24.5000656,5.81856 C14.9639296,5.81856 7.20573955,13.622664 7.20573955,23.215104 C7.20573955,32.807544 14.9639296,40.611648 24.5000656,40.611648 C34.0362016,40.611648 41.7943917,32.807544 41.7943917,23.215104 Z M26.9429205,47.347344 C26.5804815,47.347344 26.2868035,47.64276 26.2868035,48.007344 L26.2868035,62.882688 C26.2868035,63.873744 25.4852909,64.679868 24.5000656,64.679868 C23.5148403,64.679868 22.7133277,63.873744 22.7133277,62.882688 L22.7133277,48.007344 C22.7133277,47.64276 22.4195185,47.347344 22.0572107,47.347344 C21.6949029,47.347344 21.4010937,47.64276 21.4010937,48.007344 L21.4010937,62.882688 C21.4010937,64.601592 22.7912744,66 24.5000656,66 C26.2088568,66 27.5990375,64.601592 27.5990375,62.88282 L27.5990375,48.007344 C27.5990375,47.642892 27.3053595,47.347344 26.9429205,47.347344 Z M18.5632564,32.510808 C18.2009486,32.510808 17.9071394,32.806356 17.9071394,33.170808 L17.9071394,37.534068 C17.9071394,37.898652 18.2009486,38.194068 18.5632564,38.194068 C18.9255642,38.194068 19.2193734,37.898652 19.2193734,37.534068 L19.2193734,33.170808 C19.2193734,32.806356 18.9255642,32.510808 18.5632564,32.510808 Z M30.4367436,32.510808 C30.0743046,32.510808 29.7806266,32.806356 29.7806266,33.170808 L29.7806266,37.534068 C29.7806266,37.898652 30.0743046,38.194068 30.4367436,38.194068 C30.7991827,38.194068 31.0928606,37.898652 31.0928606,37.534068 L31.0928606,33.170808 C31.0928606,32.806356 30.7991827,32.510808 30.4367436,32.510808 Z M35.4341245,31.859388 L35.4341245,34.880868 C35.4341245,35.245452 35.1404465,35.540868 34.7780075,35.540868 C34.4155685,35.540868 34.1218905,35.245452 34.1218905,34.880868 L34.1218905,31.859388 C34.1218905,30.365412 32.9135854,29.149824 31.4283989,29.149824 L26.5726081,29.149824 L26.8895126,38.74728 C26.9015851,39.1116 26.6177489,39.416652 26.2555723,39.428796 C26.2480926,39.42906 26.2407441,39.429192 26.2333956,39.429192 C25.8810607,39.429192 25.589876,39.1479 25.5780659,38.791104 L25.2595867,29.149824 L23.7404133,29.149824 L23.4220653,38.791104 C23.410124,39.155424 23.1090975,39.443448 22.7445589,39.428796 C22.3823823,39.416652 22.0985461,39.1116 22.1106187,38.74728 L22.4275232,29.149824 L17.5717323,29.149824 C16.0865459,29.149824 14.8781095,30.36528 14.8781095,31.859388 L14.8781095,34.880868 C14.8781095,35.245452 14.5843003,35.540868 14.2219925,35.540868 C13.8596847,35.540868 13.5658755,35.245452 13.5658755,34.880868 L13.5658755,31.859388 C13.5658755,29.637432 15.3628488,27.829824 17.5717323,27.829824 L19.8624993,27.829824 C17.3241138,26.257704 15.6277888,23.43726 15.6277888,20.22504 C15.6277888,15.303948 19.6079259,11.300256 24.5000656,11.300256 C29.3922053,11.300256 33.3723424,15.303948 33.3723424,20.22504 C33.3723424,23.43726 31.6758862,26.257704 29.1376319,27.829824 L31.4283989,27.829824 C33.6371512,27.829956 35.4341245,29.637564 35.4341245,31.859388 Z M24.4975724,27.829824 L24.5026901,27.829824 C28.6702142,27.828372 32.0602396,24.417492 32.0602396,20.225172 C32.0602396,16.031928 28.6687707,12.620388 24.5001968,12.620388 C20.331623,12.620388 16.9401541,16.031928 16.9401541,20.225172 C16.9400229,24.417492 20.3301795,27.828372 24.4975724,27.829824 Z" id="Shape" fill="#1C1D21"></path>
        </g>
    </g>
</svg>