<?xml version="1.0" encoding="UTF-8" standalone="no"?>
<svg width="58px" height="76px" viewBox="0 0 58 76" version="1.1" xmlns="http://www.w3.org/2000/svg" xmlns:xlink="http://www.w3.org/1999/xlink">
    <!-- Generator: Sketch 48.1 (47250) - http://www.bohemiancoding.com/sketch -->
    <title>watch</title>
    <desc>Created with Sketch.</desc>
    <defs></defs>
    <g id="0000" stroke="none" stroke-width="1" fill="none" fill-rule="evenodd" transform="translate(-685.000000, -1794.000000)">
        <g id="watch" transform="translate(714.000000, 1832.000000) scale(1, -1) translate(-714.000000, -1832.000000) translate(685.000000, 1794.000000)" fill-rule="nonzero">
            <path d="M56.096532,42 L53.903468,42 C53.4045822,42 53,41.5839517 53,41.0705681 L53,34.9294319 C53,34.4162092 53.4044259,34 53.903468,34 L56.096532,34 C56.5954178,34 57,34.4160483 57,34.9294319 L57,41.0705681 C57,41.5839517 56.5955741,42 56.096532,42 Z" id="Shape" fill="#AAB1BA"></path>
            <circle id="Oval" fill="#AAB1BA" cx="26" cy="39" r="25"></circle>
            <circle id="Oval" fill="#FFFFFF" cx="26" cy="37" r="21"></circle>
            <path d="M34.6694159,10 L17.3305841,10 C16.5957862,10 16,9.40897521 16,8.68004959 L16,1 L36,1 L36,8.68004959 C36,9.40897521 35.4043638,10 34.6694159,10 Z" id="Shape" fill="#B8D432"></path>
            <path d="M17.3304342,66 L34.6694159,66 C35.4042138,66 36,66.5910248 36,67.3199504 L36,75 L16,75 L16,67.3199504 C15.9998501,66.5910248 16.5956362,66 17.3304342,66 Z" id="Shape" fill="#B8D432"></path>
            <ellipse id="Oval" fill="#B8D432" cx="26" cy="37.5" rx="3" ry="2.5"></ellipse>
            <path d="M2.31673746,13.117448 C2.31673746,12.697776 2.65681319,12.357448 3.07617412,12.357448 L3.96213292,12.357448 L3.96213292,11.470832 C3.96213292,11.05116 4.30220865,10.710832 4.72156957,10.710832 C5.14093049,10.710832 5.48100623,11.05116 5.48100623,11.470832 L5.48100623,12.357448 L6.36696503,12.357448 C6.78632595,12.357448 7.12640168,12.697776 7.12640168,13.117448 C7.12640168,13.53712 6.78632595,13.877448 6.36696503,13.877448 L5.48100623,13.877448 L5.48100623,14.764064 C5.48100623,15.183736 5.14093049,15.524064 4.72156957,15.524064 C4.30220865,15.524064 3.96213292,15.183736 3.96213292,14.764064 L3.96213292,13.877448 L3.07617412,13.877448 C2.65681319,13.877448 2.31673746,13.53712 2.31673746,13.117448 Z M48.171067,62.122552 L47.2851082,62.122552 L47.2851082,61.235936 C47.2851082,60.816112 46.9450325,60.475936 46.5256716,60.475936 C46.1063107,60.475936 45.7662349,60.816112 45.7662349,61.235936 L45.7662349,62.122552 L44.8802761,62.122552 C44.4609152,62.122552 44.1208395,62.462728 44.1208395,62.882552 C44.1208395,63.302376 44.4609152,63.642552 44.8802761,63.642552 L45.7662349,63.642552 L45.7662349,64.529168 C45.7662349,64.948992 46.1063107,65.289168 46.5256716,65.289168 C46.9450325,65.289168 47.2851082,64.948992 47.2851082,64.529168 L47.2851082,63.642552 L48.171067,63.642552 C48.590428,63.642552 48.9305037,63.302376 48.9305037,62.882552 C48.9305037,62.462728 48.590428,62.122552 48.171067,62.122552 Z M5.35888881,24.931952 C5.54282437,24.6468 5.73556939,24.361496 5.93165594,24.084096 C6.17391623,23.741488 6.0928084,23.267096 5.75045435,23.024656 C5.40810031,22.782216 4.93405995,22.863384 4.69179966,23.205992 C4.48325835,23.500872 4.27836234,23.804264 4.08273146,24.107352 C3.85520424,24.459992 3.95651309,24.930432 4.30889169,25.158128 C4.43617328,25.240512 4.57894737,25.279728 4.7200507,25.279728 C4.9694497,25.279728 5.21368452,25.157064 5.35888881,24.931952 Z M3.78700682,38 C3.78700682,25.950352 13.5828284,16.147264 25.6235446,16.147264 C37.6642609,16.147264 47.4600824,25.950352 47.4600824,38 C47.4600824,50.049496 37.6642609,59.852736 25.6235446,59.852736 C13.5828284,59.852736 3.78700682,50.049496 3.78700682,38 Z M5.30588013,38 C5.30588013,49.21152 14.4203351,58.332736 25.6235446,58.332736 C36.8267542,58.332736 45.9412091,49.21152 45.9412091,38 C45.9412091,26.78848 36.8267542,17.667264 25.6235446,17.667264 C14.4203351,17.667264 5.30588013,26.78848 5.30588013,38 Z M22.0405225,38 C22.0405225,36.283616 23.2521277,34.845848 24.864108,34.496248 L24.864108,25.20616 C24.864108,24.786488 25.2041837,24.44616 25.6235446,24.44616 C26.0429056,24.44616 26.3829813,24.786488 26.3829813,25.20616 L26.3829813,34.496248 C27.9951134,34.845848 29.2065668,36.283768 29.2065668,38.000152 C29.2065668,38.714248 28.9960509,39.379704 28.6350147,39.939216 L33.3869618,44.694536 C33.6835977,44.99124 33.6835977,45.472472 33.3869618,45.769176 C33.2385679,45.91768 33.044304,45.991856 32.8498882,45.991856 C32.6554724,45.991856 32.4612085,45.91768 32.3128146,45.769176 L27.5610194,41.013856 C27.0019222,41.375008 26.3369594,41.58568 25.6233927,41.58568 C23.6479461,41.58568 22.0405225,39.977216 22.0405225,38 Z M23.5593958,38 C23.5593958,39.138936 24.485301,40.06568 25.6235446,40.06568 C26.7617883,40.06568 27.6876935,39.138936 27.6876935,38 C27.6876935,36.860912 26.7616364,35.93432 25.6235446,35.93432 C24.4854529,35.93432 23.5593958,36.860912 23.5593958,38 Z M25.6235446,21.577768 C26.0429056,21.577768 26.3829813,21.23744 26.3829813,20.817768 L26.3829813,20.070688 C26.3829813,19.651016 26.0429056,19.310688 25.6235446,19.310688 C25.2041837,19.310688 24.864108,19.651016 24.864108,20.070688 L24.864108,20.817768 C24.864108,21.237592 25.2041837,21.577768 25.6235446,21.577768 Z M25.6235446,54.422232 C25.2041837,54.422232 24.864108,54.762408 24.864108,55.182232 L24.864108,55.92916 C24.864108,56.348984 25.2041837,56.68916 25.6235446,56.68916 C26.0429056,56.68916 26.3829813,56.348984 26.3829813,55.92916 L26.3829813,55.182232 C26.3829813,54.762408 26.0429056,54.422232 25.6235446,54.422232 Z M37.7642028,26.610336 C37.9586186,26.610336 38.1530343,26.53616 38.3012764,26.387656 L38.8290849,25.859304 C39.1257208,25.562448 39.1257208,25.081216 38.8290849,24.784512 C38.5326008,24.487656 38.0515736,24.487656 37.7550895,24.784512 L37.2272811,25.312864 C36.9306451,25.60972 36.9306451,26.090952 37.2272811,26.387656 C37.3755231,26.536312 37.569787,26.610336 37.7642028,26.610336 Z M12.955078,51.437864 C13.1494938,51.437864 13.3439096,51.363688 13.4921516,51.215184 L14.0199601,50.686832 C14.316596,50.390128 14.316596,49.908896 14.0199601,49.61204 C13.723476,49.315488 13.2424488,49.315336 12.9459648,49.612192 L12.4181563,50.140544 C12.1215203,50.437248 12.1215203,50.91848 12.4181563,51.215336 C12.5663983,51.363688 12.7606622,51.437864 12.955078,51.437864 Z M42.7930404,38.76 L43.5395666,38.76 C43.9589276,38.76 44.2990033,38.419824 44.2990033,38 C44.2990033,37.580328 43.9589276,37.24 43.5395666,37.24 L42.7930404,37.24 C42.3736795,37.24 42.0336038,37.580328 42.0336038,38 C42.0336038,38.419824 42.3736795,38.76 42.7930404,38.76 Z M7.7076745,38.76 L8.45420073,38.76 C8.87356165,38.76 9.21363739,38.419824 9.21363739,38 C9.21363739,37.580328 8.87356165,37.24 8.45420073,37.24 L7.7076745,37.24 C7.28831358,37.24 6.94823785,37.580328 6.94823785,38 C6.94823785,38.419824 7.28831358,38.76 7.7076745,38.76 Z M37.7550895,51.215184 C37.9033316,51.363688 38.0977474,51.437864 38.2921631,51.437864 C38.486427,51.437864 38.6808428,51.363688 38.8290849,51.215336 C39.1257208,50.91848 39.1257208,50.437248 38.8290849,50.140544 L38.3012764,49.612192 C38.0047923,49.315488 37.523917,49.315488 37.2272811,49.61204 C36.9306451,49.908896 36.9306451,50.390128 37.2272811,50.686832 L37.7550895,51.215184 Z M12.9459648,26.387808 C13.0942068,26.536312 13.2886226,26.610488 13.4830384,26.610488 C13.6773023,26.610488 13.8717181,26.536312 14.0199601,26.38796 C14.316596,26.091256 14.316596,25.610024 14.0199601,25.313168 L13.4921516,24.784816 C13.1956675,24.488112 12.7147923,24.48796 12.4181563,24.784816 C12.1215203,25.08152 12.1215203,25.562752 12.4181563,25.859608 L12.9459648,26.387808 Z M58,35.09908 L58,40.90092 C58,41.804104 57.2657766,42.539024 56.3632621,42.539024 L54.2333461,42.539024 C53.3308316,42.539024 52.5964563,41.804104 52.5964563,40.90092 L52.5964563,38.76 L51.2350902,38.76 C50.9812864,47.438288 46.3979343,55.047712 39.5763705,59.497056 L39.5763705,66.049928 C39.5763705,67.352264 38.517412,68.412008 37.2158895,68.412008 L36.5117398,68.412008 L36.5117398,75.24 C36.5117398,75.659824 36.1716641,76 35.7523032,76 C35.3329423,76 34.9928665,75.659824 34.9928665,75.24 L34.9928665,67.806896 C34.9825382,67.756888 34.9769184,67.705208 34.9769184,67.652008 C34.9769184,67.598808 34.9825382,67.54728 34.9928665,67.49712 L34.9928665,67.392544 C34.9928665,67.067872 34.7290382,66.803848 34.4046069,66.803848 L16.8426343,66.803848 C16.5182029,66.803848 16.2543746,67.067872 16.2543746,67.392544 L16.2543746,67.49712 C16.264703,67.547128 16.2703228,67.598808 16.2703228,67.652008 C16.2703228,67.705208 16.264703,67.756736 16.2543746,67.806896 L16.2543746,75.24 C16.2543746,75.659824 15.9142989,76 15.494938,76 C15.075577,76 14.7355013,75.659824 14.7355013,75.24 L14.7355013,68.412008 L14.0313516,68.412008 C12.7298291,68.412008 11.6708706,67.352264 11.6708706,66.049928 L11.6708706,59.497056 C4.65079008,54.91836 0,46.99308 0,38 C0,33.972608 0.906615479,30.11728 2.69463314,26.541024 C2.88236588,26.165584 3.33863542,26.013432 3.71364524,26.201456 C4.08880695,26.389328 4.24069428,26.845784 4.05296154,27.221224 C2.37156879,30.584376 1.51887331,34.210944 1.51887331,38 C1.51887331,51.301216 12.3321881,62.122552 25.6235446,62.122552 C38.9149012,62.122552 49.728216,51.301216 49.728216,38 C49.728216,24.698784 38.9149012,13.877448 25.6235446,13.877448 C18.8294724,13.877448 12.3153286,16.769856 7.75156994,21.812912 C7.46997083,22.123904 6.9895512,22.147616 6.67878972,21.866112 C6.36787635,21.584304 6.34418193,21.10368 6.62562915,20.792536 C8.12627598,19.134216 9.82589522,17.695384 11.6707187,16.497928 L11.6707187,9.950072 C11.6707187,8.647584 12.7296772,7.58784 14.0311998,7.58784 L14.7353494,7.58784 L14.7353494,0.76 C14.7353494,0.340328 15.0754252,0 15.4947861,0 C15.914147,0 16.2542227,0.340328 16.2542227,0.76 L16.2542227,8.193104 C16.2645511,8.243112 16.2701709,8.294792 16.2701709,8.347992 C16.2701709,8.401192 16.2645511,8.45272 16.2542227,8.50288 L16.2542227,8.607456 C16.2542227,8.932128 16.518051,9.196152 16.8424824,9.196152 L34.404455,9.196152 C34.7288864,9.196152 34.9927146,8.932128 34.9927146,8.607456 L34.9927146,8.50288 C34.9823863,8.452872 34.9767665,8.401192 34.9767665,8.347992 C34.9767665,8.294792 34.9823863,8.243264 34.9927146,8.193104 L34.9927146,0.76 C34.9927146,0.340328 35.3327904,0 35.7521513,0 C36.1715122,0 36.511588,0.340328 36.511588,0.76 L36.511588,7.587992 L37.2157376,7.587992 C38.5172602,7.587992 39.5762186,8.647736 39.5762186,9.950224 L39.5762186,16.503096 C46.3977824,20.952288 50.9811345,28.561864 51.2349383,37.240152 L52.5963044,37.240152 L52.5963044,35.099232 C52.5963044,34.196048 53.3305278,33.46128 54.2331942,33.46128 L56.3631102,33.46128 C57.2656248,33.460976 58,34.195896 58,35.09908 Z M25.6235446,12.357448 C30.1327757,12.357448 34.3728624,13.530736 38.0573453,15.585776 L38.0573453,9.950072 C38.0573453,9.485712 37.6799053,9.10784 37.2157376,9.10784 L36.4490104,9.10784 C36.2234577,10.029264 35.3935453,10.715848 34.404455,10.715848 L16.8426343,10.715848 C15.8533921,10.715848 15.0234797,10.029112 14.7980789,9.10784 L14.0313516,9.10784 C13.5673358,9.10784 13.1897439,9.48556 13.1897439,9.950072 L13.1897439,15.586536 C16.9594356,13.493952 21.2359753,12.357448 25.6235446,12.357448 Z M38.0574972,60.414224 C34.3727106,62.469416 30.1327757,63.642552 25.6235446,63.642552 C21.1143135,63.642552 16.8743787,62.469264 13.1897439,60.414224 L13.1897439,66.049928 C13.1897439,66.514288 13.567184,66.892008 14.0313516,66.892008 L14.7980789,66.892008 C15.0236316,65.970584 15.853544,65.284 16.8426343,65.284 L34.4046069,65.284 C35.3938491,65.284 36.2237615,65.970736 36.4491623,66.892008 L37.2158895,66.892008 C37.6799053,66.892008 38.0574972,66.514288 38.0574972,66.049928 L38.0574972,60.414224 Z M54.1151777,37.24 L56.4809748,37.24 L56.4809748,35.09908 C56.4809748,35.034024 56.428118,34.981128 56.3631102,34.981128 L54.2331942,34.981128 C54.1681864,34.981128 54.1151777,35.034024 54.1151777,35.09908 L54.1151777,37.24 Z M56.4811267,40.90092 L56.4811267,38.76 L54.1153296,38.76 L54.1153296,40.90092 C54.1153296,40.966128 54.1683383,41.019024 54.2333461,41.019024 L56.3632621,41.019024 C56.4282699,41.019024 56.4811267,40.966128 56.4811267,40.90092 Z M18.2831337,2.027528 C18.7024946,2.027528 19.0425704,1.6872 19.0425704,1.267528 L19.0425704,0.76 C19.0425704,0.340328 18.7024946,0 18.2831337,0 C17.8637728,0 17.523697,0.340328 17.523697,0.76 L17.523697,1.267528 C17.523697,1.687352 17.8637728,2.027528 18.2831337,2.027528 Z M18.2831337,4.891512 C18.7024946,4.891512 19.0425704,4.551184 19.0425704,4.131512 L19.0425704,3.623984 C19.0425704,3.204312 18.7024946,2.863984 18.2831337,2.863984 C17.8637728,2.863984 17.523697,3.204312 17.523697,3.623984 L17.523697,4.131512 C17.523697,4.551184 17.8637728,4.891512 18.2831337,4.891512 Z M18.2831337,7.755344 C18.7024946,7.755344 19.0425704,7.415016 19.0425704,6.995344 L19.0425704,6.487816 C19.0425704,6.068144 18.7024946,5.727816 18.2831337,5.727816 C17.8637728,5.727816 17.523697,6.068144 17.523697,6.487816 L17.523697,6.995344 C17.523697,7.415016 17.8637728,7.755344 18.2831337,7.755344 Z M32.9639556,2.027528 C33.3833165,2.027528 33.7233922,1.6872 33.7233922,1.267528 L33.7233922,0.76 C33.7233922,0.340328 33.3833165,0 32.9639556,0 C32.5445946,0 32.2045189,0.340328 32.2045189,0.76 L32.2045189,1.267528 C32.2045189,1.687352 32.5444428,2.027528 32.9639556,2.027528 Z M32.9639556,4.891512 C33.3833165,4.891512 33.7233922,4.551184 33.7233922,4.131512 L33.7233922,3.623984 C33.7233922,3.204312 33.3833165,2.863984 32.9639556,2.863984 C32.5445946,2.863984 32.2045189,3.204312 32.2045189,3.623984 L32.2045189,4.131512 C32.2045189,4.551184 32.5444428,4.891512 32.9639556,4.891512 Z M32.9639556,7.755344 C33.3833165,7.755344 33.7233922,7.415016 33.7233922,6.995344 L33.7233922,6.487816 C33.7233922,6.068144 33.3833165,5.727816 32.9639556,5.727816 C32.5445946,5.727816 32.2045189,6.068144 32.2045189,6.487816 L32.2045189,6.995344 C32.2045189,7.415016 32.5444428,7.755344 32.9639556,7.755344 Z M18.2831337,68.244656 C17.8637728,68.244656 17.523697,68.584832 17.523697,69.004656 L17.523697,69.512336 C17.523697,69.93216 17.8637728,70.272336 18.2831337,70.272336 C18.7024946,70.272336 19.0425704,69.93216 19.0425704,69.512336 L19.0425704,69.004656 C19.0425704,68.584832 18.7026465,68.244656 18.2831337,68.244656 Z M18.2831337,71.108488 C17.8637728,71.108488 17.523697,71.448664 17.523697,71.868488 L17.523697,72.376016 C17.523697,72.79584 17.8637728,73.136016 18.2831337,73.136016 C18.7024946,73.136016 19.0425704,72.79584 19.0425704,72.376016 L19.0425704,71.868488 C19.0425704,71.448816 18.7026465,71.108488 18.2831337,71.108488 Z M18.2831337,73.97232 C17.8637728,73.97232 17.523697,74.312496 17.523697,74.73232 L17.523697,75.24 C17.523697,75.659824 17.8637728,76 18.2831337,76 C18.7024946,76 19.0425704,75.659824 19.0425704,75.24 L19.0425704,74.73232 C19.0425704,74.312496 18.7026465,73.97232 18.2831337,73.97232 Z M32.9639556,68.244656 C32.5445946,68.244656 32.2045189,68.584832 32.2045189,69.004656 L32.2045189,69.512336 C32.2045189,69.93216 32.5445946,70.272336 32.9639556,70.272336 C33.3833165,70.272336 33.7233922,69.93216 33.7233922,69.512336 L33.7233922,69.004656 C33.7233922,68.584832 33.3833165,68.244656 32.9639556,68.244656 Z M32.9639556,71.108488 C32.5445946,71.108488 32.2045189,71.448664 32.2045189,71.868488 L32.2045189,72.376016 C32.2045189,72.79584 32.5445946,73.136016 32.9639556,73.136016 C33.3833165,73.136016 33.7233922,72.79584 33.7233922,72.376016 L33.7233922,71.868488 C33.7233922,71.448816 33.3833165,71.108488 32.9639556,71.108488 Z M32.9639556,73.97232 C32.5445946,73.97232 32.2045189,74.312496 32.2045189,74.73232 L32.2045189,75.24 C32.2045189,75.659824 32.5445946,76 32.9639556,76 C33.3833165,76 33.7233922,75.659824 33.7233922,75.24 L33.7233922,74.73232 C33.7233922,74.312496 33.3833165,73.97232 32.9639556,73.97232 Z" id="Shape" fill="#1C1D21"></path>
        </g>
    </g>
</svg>